<svg id="Layer_1" data-name="Layer 1" xmlns="http://www.w3.org/2000/svg" xmlns:xlink="http://www.w3.org/1999/xlink" viewBox="0 0 100 100"><defs><style>.cls-1{fill:url(#linear-gradient);}.cls-2,.cls-4{fill:none;}.cls-2,.cls-3,.cls-4{stroke:#000;stroke-miterlimit:10;}.cls-2{stroke-width:2px;}.cls-3{fill:url(#linear-gradient-2);}.cls-4{stroke-width:3px;}</style><linearGradient id="linear-gradient" x1="66.36" y1="8.9" x2="28.74" y2="88.05" gradientUnits="userSpaceOnUse"><stop offset="0" stop-color="#fff"/><stop offset="0.05" stop-color="#fbe3b5"/><stop offset="0.11" stop-color="#f7c768"/><stop offset="0.16" stop-color="#f4b230"/><stop offset="0.19" stop-color="#f3a50d"/><stop offset="0.21" stop-color="#f2a000"/></linearGradient><linearGradient id="linear-gradient-2" x1="54.02" y1="26.57" x2="45.56" y2="39.5" gradientUnits="userSpaceOnUse"><stop offset="0" stop-color="#fff"/><stop offset="0.06" stop-color="#fbe3b5"/><stop offset="0.12" stop-color="#f7c768"/><stop offset="0.17" stop-color="#f4b230"/><stop offset="0.21" stop-color="#f3a50d"/><stop offset="0.23" stop-color="#f2a000"/></linearGradient></defs><path class="cls-1" d="M80.35,25.82C69.84,1.3,32.8,1,21.48,24.74,9.81,55.53,28.79,80.21,50.37,96.84,70.88,79.66,89.29,56.2,80.35,25.82ZM31.15,29.3C35.23,22.41,42.29,17.57,50,17.52c5.66,0,10.61,2.89,15,6a9.27,9.27,0,0,1,1.68,1.62c.62,1-.09,1.11,1.31,2.09s5.09,15.47,1.63,22.92c-.59,1.26-.84,2.85-1.77,5.45a48.16,48.16,0,0,1-3.15,6.74A58.69,58.69,0,0,1,59.24,71c-1.34,1.58-1.82,2-2.75,3a35.24,35.24,0,0,1-5.43,5.28c.11.44-.82.66-1.26.42-.34.06-.55-.34-1-.54-.79-.77-.25-.51-.91-.77a3.34,3.34,0,0,1-.78-.54,23.56,23.56,0,0,1-2.1-2c-2.34-2.07-5.29-4.47-6.67-7.36-3.24-6-8.41-12.7-8.16-19.74-.89-1.16-1.56-8.68-1.4-10.11a44.37,44.37,0,0,1,2.41-9.26"/><path class="cls-2" d="M49.8,79.65c-20.17-12.46-35.56-57.15,0-62.17C85.94,21.71,69,66.59,49.8,79.65Z"/><path class="cls-3" d="M58.29,33c.16,11-17.16,11-17,0C41.13,22,58.45,22,58.29,33Z"/><path class="cls-4" d="M79.78,25.78C69.28,1.26,32.24,1,20.92,24.7,9.25,55.48,28.23,80.17,49.81,96.79,70.32,79.62,88.73,56.16,79.78,25.78Z"/></svg>