<svg id="icons" height="512" viewBox="0 0 340 340" width="512" xmlns="http://www.w3.org/2000/svg"><path d="m297.687 248.248s33.962 66.023-33.963 65.479c0 0-25.539-35.864 33.963-65.479z" fill="#92b27b"/><path d="m287.906 114.03s-34.234 46.892 27.441 73.246c0 0 38.853-54.771-27.441-73.246z" fill="#fc9c59"/><path d="m218.894 135.765s-66.967-13.138-64.25 47.179c0 0 59.356 12.323 64.25-47.179z" fill="#92b27b"/><path d="m155.62 31.433s-13.881 56.785-73.794 24.453c0 0 19.214-55.426 73.794-24.453z" fill="#fc9c59"/><g fill="#99c1fa"><path d="m13.328 88.121h230.9c33.869 0 54.1-14.014 56.973-39.461 2.3-20.379-14.9-39.11-38.329-41.753a37.484 37.484 0 0 0 -25.318 5.939c-7.324 4.978-11.866 12.227-12.789 20.413a23.452 23.452 0 0 0 6.521 18.753 30.7 30.7 0 0 0 19.12 9.362 25.265 25.265 0 0 0 17.052-4.011 19.451 19.451 0 0 0 8.733-13.963 3.5 3.5 0 1 0 -6.955-.784 12.569 12.569 0 0 1 -5.708 8.959 18.257 18.257 0 0 1 -12.328 2.843 23.693 23.693 0 0 1 -14.78-7.174 16.568 16.568 0 0 1 -4.691-13.2 21.571 21.571 0 0 1 9.769-15.407 30.5 30.5 0 0 1 20.6-4.773c19.6 2.211 34.025 17.469 32.16 34.013-3.1 27.477-28.912 33.245-50.018 33.245h-230.912a3.5 3.5 0 0 0 0 7z"/><path d="m170.438 251.88h-157.11a3.5 3.5 0 1 0 0 7h157.11c21.107 0 46.919 5.768 50.018 33.244.892 7.913-1.894 15.793-7.844 22.189a39 39 0 0 1 -24.312 11.824 30.488 30.488 0 0 1 -20.6-4.772 21.571 21.571 0 0 1 -9.769-15.407 16.567 16.567 0 0 1 4.691-13.2 23.693 23.693 0 0 1 14.78-7.174c9.1-1.025 17.191 4.27 18.042 11.8a3.5 3.5 0 1 0 6.955-.785c-1.281-11.369-12.828-19.43-25.782-17.975a30.7 30.7 0 0 0 -19.12 9.362 23.451 23.451 0 0 0 -6.521 18.753c.923 8.186 5.465 15.435 12.789 20.413a36.878 36.878 0 0 0 20.769 6.2 40.8 40.8 0 0 0 4.549-.256 46.006 46.006 0 0 0 28.656-14.013c7.363-7.915 10.8-17.767 9.673-27.741-2.87-25.448-23.104-39.462-56.974-39.462z"/><path d="m13.328 122.672h211.845a3.5 3.5 0 0 0 0-7h-211.845a3.5 3.5 0 0 0 0 7z"/><path d="m13.328 155.132h83.246a3.5 3.5 0 1 0 0-7h-83.246a3.5 3.5 0 0 0 0 7z"/><path d="m13.328 190.776h109.69a3.5 3.5 0 0 0 0-7h-109.69a3.5 3.5 0 0 0 0 7z"/><path d="m112.1 282.133c-.052 0-.1 0-.156 0h-98.616a3.5 3.5 0 1 0 0 7h98.538c7.359.342 12.376 2.609 15.337 6.927a3.5 3.5 0 1 0 5.773-3.958c-4.239-6.188-11.263-9.541-20.876-9.969z"/><path d="m123.018 148.132a3.5 3.5 0 1 0 0 7h7.071a3.5 3.5 0 0 0 0-7z"/><path d="m212.857 183.776a3.5 3.5 0 0 0 0 7h30.43a3.5 3.5 0 0 0 0-7z"/><path d="m269.818 183.776a3.5 3.5 0 0 0 0 7h8.065a3.5 3.5 0 0 0 0-7z"/><path d="m316.906 221.44h-235.08a3.5 3.5 0 1 0 0 7h235.08a3.5 3.5 0 0 0 0-7z"/><path d="m36.328 221.44a3.5 3.5 0 0 0 0 7h7.665a3.5 3.5 0 0 0 0-7z"/></g><path d="m289.746 110.927c-3.5-5.239-5.956-8.33-6.253-8.7a3.5 3.5 0 0 0 -5.456 4.386c.069.086 2.26 2.845 5.5 7.691-3.636 5.927-12.016 22.221-7.129 40 4.16 15.141 16.8 27.316 37.56 36.188a3.494 3.494 0 0 0 4.23-1.193c.736-1.038 17.943-25.691 9.776-48.706-4.897-13.807-17.768-23.78-38.228-29.666zm24.269 71.932c-17.062-7.834-27.432-18.037-30.84-30.354-3.511-12.7 1.238-24.951 4.646-31.5 1.35 2.214 2.777 4.659 4.234 7.293.193 1.875.456 8.167-4 12.335a3.5 3.5 0 0 0 4.78 5.113 19.02 19.02 0 0 0 4.673-6.849 164.154 164.154 0 0 1 11.25 31.007 3.5 3.5 0 0 0 6.8-1.675c-1.255-5.094-2.755-10-4.4-14.691a14.919 14.919 0 0 0 4.154.625c.172 0 .346 0 .52-.01a3.5 3.5 0 1 0 -.276-6.994c-3.19.108-6.675-2.292-8.274-3.663a196.317 196.317 0 0 0 -11.7-23.26c13.644 5.268 22.3 12.873 25.795 22.675 5.63 15.829-3.563 33.615-7.362 39.948z" fill="#424256"/><path d="m109.185 29c9.381-4.491 20.18-4.62 32.1-.386a3.5 3.5 0 1 0 2.344-6.6c-13.756-4.889-26.378-4.656-37.516.7-19.562 9.394-27.276 31.106-27.594 32.026a3.5 3.5 0 0 0 1.645 4.226c12.819 6.918 24.546 10.384 35.065 10.384a41.582 41.582 0 0 0 17.064-3.506c18.319-8.139 25.024-27.669 26.432-32.5a72.947 72.947 0 0 0 11.941-8.15 3.5 3.5 0 0 0 -4.584-5.29c-6.908 5.987-17.665 11.389-29.335 16.021-.1.035-.2.074-.3.119-5.335 2.108-10.852 4.056-16.28 5.824-2.382-.462-7.3-1.783-10.594-4.2a3.5 3.5 0 0 0 -4.143 5.644 24.465 24.465 0 0 0 3.382 2.056c-1.638.477-3.249.938-4.819 1.377a3.5 3.5 0 1 0 1.883 6.742c6.852-1.914 14.424-4.207 22.028-6.841a36.092 36.092 0 0 0 -1.656 4.115 3.5 3.5 0 1 0 6.642 2.206c2.254-6.785 5.8-9.932 6.736-10.676 3.355-1.34 6.645-2.744 9.807-4.212-3.156 6.86-9.307 16.65-20.031 21.394-11.611 5.135-26.107 3.382-43.118-5.2 2.616-5.765 9.809-19.005 22.901-25.273z" fill="#424256"/><path d="m144.844 188.269a3.5 3.5 0 1 0 5.457 4.384 69.47 69.47 0 0 1 5.506-5.955 75.827 75.827 0 0 0 11.309.827c9.962 0 23.827-1.891 35.334-10.5 11.711-8.757 18.417-22.544 19.932-40.978a3.5 3.5 0 0 0 -2.814-3.721c-1.383-.271-34.087-6.446-53.986 10.694-10.055 8.66-14.91 21.607-14.475 38.474a78 78 0 0 0 -6.263 6.775zm25.286-39.924c14.011-12.086 36.671-10.633 44.943-9.611-1.808 14.687-7.444 25.665-16.779 32.663-11.665 8.743-26.7 9.466-35.535 8.958 6.141-5.295 13.906-11.349 23.068-17.981 1.338-.482 6.8-2.173 12.162.122a3.5 3.5 0 0 0 2.754-6.436 21.123 21.123 0 0 0 -4.177-1.279q2.9-2 5.925-4.058a3.5 3.5 0 0 0 -3.928-5.8c-6.932 4.7-14.635 10.081-22.113 15.635a27.16 27.16 0 0 0 -.184-4.275 3.5 3.5 0 1 0 -6.947.854 21.015 21.015 0 0 1 -1.147 9.724c-3.5 2.742-6.858 5.477-9.955 8.148.797-11.564 4.788-20.515 11.913-26.664z" fill="#424256"/><path d="m250.57 317.226a3.5 3.5 0 1 0 2.205 6.643 42.455 42.455 0 0 0 11.967-6.342h.31c19.773 0 33.235-5.612 40.02-16.684 12.782-20.862-3.576-52.859-4.279-54.211a3.5 3.5 0 0 0 -4.666-1.519c-38.706 19.264-43.508 41.471-40.722 56.709a3.5 3.5 0 0 0 6.887-1.26c-2.282-12.469 1.871-30.672 33.763-47.545 3.56 8.112 11.707 30.035 3.048 44.168-4.563 7.447-13.389 11.8-26.3 13a79.427 79.427 0 0 0 7.143-9.124 12.8 12.8 0 0 1 9.557-2.929 3.5 3.5 0 1 0 .76-6.959 19.161 19.161 0 0 0 -4.419.033 159.782 159.782 0 0 0 9.827-23.039 3.5 3.5 0 1 0 -6.623-2.266c-.69 2.017-1.486 4.219-2.39 6.543-.315-.671-.555-1.089-.6-1.16a3.5 3.5 0 0 0 -6.023 3.566c.031.055 3.078 5.437.855 10.6-6.831 13.522-16.815 27.294-30.32 31.776z" fill="#424256"/></svg>