<?xml version="1.0" encoding="iso-8859-1"?>
<!-- Generator: Adobe Illustrator 16.0.0, SVG Export Plug-In . SVG Version: 6.00 Build 0)  -->
<!DOCTYPE svg PUBLIC "-//W3C//DTD SVG 1.1//EN" "http://www.w3.org/Graphics/SVG/1.1/DTD/svg11.dtd">
<svg version="1.1" id="Capa_1" xmlns="http://www.w3.org/2000/svg" xmlns:xlink="http://www.w3.org/1999/xlink" x="0px" y="0px"
	 width="107.112px" height="107.112px" viewBox="0 0 107.112 107.112" style="enable-background:new 0 0 107.112 107.112;"
	 xml:space="preserve">
<g>
	<path d="M53.344,54.118c0.254-0.366,0.736-0.207,1.007-0.485c0.093-0.096,0.062-0.215-0.055-0.252
		c-0.417-0.139-0.748-0.594-1.287-0.316c-0.077,0.041-0.19,0.113-0.303,0.113v0.707c0.061,0.039,0.121,0.076,0.213,0.102
		C53.063,54.021,53.291,54.194,53.344,54.118z"/>
	<path d="M53.556,107.112c29.53,0,53.556-24.024,53.556-53.556C107.112,24.025,83.086,0,53.556,0S0,24.025,0,53.557
		C0,83.088,24.026,107.112,53.556,107.112z M104.878,65.951c0.876-3.947,1.326-8.075,1.326-12.395c0-4.424-0.47-8.653-1.396-12.691
		c1.009,4.068,1.553,8.317,1.553,12.691C106.362,57.825,105.84,61.973,104.878,65.951z M86.085,22.621
		c0.394,0.318,0.438,0.539-0.123,0.664c-0.088-0.084-0.174-0.168-0.262-0.251c-0.14-0.162-0.31-0.195-0.515-0.162
		c-0.258,0.042-0.346-0.108-0.317-0.337c0.026-0.248,0.188-0.317,0.408-0.246C85.553,22.379,85.844,22.424,86.085,22.621z
		 M80.395,22.431c-0.086,0.105-0.236,0.146-0.34,0.079c-0.572-0.379-1.375-0.342-1.789-0.999l-0.002-0.001
		c-0.605-0.123-1.068-0.562-1.644-0.754c-0.039-0.003-0.078-0.005-0.117-0.008c-0.254-0.115-0.471-0.3-0.741-0.391
		c-0.129-0.042-0.271-0.211-0.183-0.331c0.511-0.668-0.149-0.769-0.478-1.035c-0.041-0.001-0.08-0.004-0.121-0.008
		c-0.067-0.167-0.131-0.334,0.003-0.501c-0.003-0.041-0.007-0.082-0.007-0.122c0,0,0,0-0.002,0c-0.51,0.204-0.576-0.357-0.879-0.509
		c-0.574-0.506-1.133-1.011-1.057-1.894c0.02-0.226,0.014-0.421,0.24-0.525c0.221-0.101,0.195-0.289,0.215-0.479
		c0.08-0.856,0.605-1.498,1.287-1.851c0.375-0.195,0.912,0.245,1.258,0.612c0.129,0.135,0.213,0.311,0.318,0.468
		c0.135-0.054,0.268-0.117,0.408-0.159c0.25-0.076,0.396-0.189,0.162-0.432c-0.105-0.109-0.238-0.208-0.146-0.369
		c0.103-0.169,0.293-0.142,0.457-0.122c0.121,0.014,0.248,0.055,0.353,0.117c0.385,0.227,0.709,0.541,1.227,0.523
		c0.189-0.006,0.539,0.128,0.484,0.572c-0.047,0.369,0.594,0.341,0.619,0.751l0.002,0.001c0.44-0.042,0.709,0.244,0.983,0.518
		c0.137,0.103,0.299,0.188,0.448,0.212c0.355,0.058,0.558,0.235,0.699,0.56c0.111,0.249,0.289,0.445,0.601,0.541
		c0.437,0.133,0.573,0.544,0.471,0.938c-0.104,0.401-0.004,0.676,0.244,0.968c0.613,0.72,0.541,2.103-0.155,2.732
		c-0.244,0.219-0.386,0.556-0.73,0.665c-0.064-0.012-0.129-0.004-0.193-0.008c-0.248,0.202-0.592,0.021-0.875,0.084
		c-0.016-0.013-0.031-0.018-0.047-0.03c-0.311,0.042-0.621,0.07-0.934,0.007C80.452,22.305,80.451,22.362,80.395,22.431z
		 M67.766,16.96c-0.517-0.205-0.254-0.554-0.15-0.843c0.109-0.3,0.393-0.285,0.645-0.217c0.324,0.087,0.512,0.286,0.457,0.472
		c-0.162,0.604,0.26,0.796,0.361,1.131c0.057,0.192,0.266,0.368,0.072,0.572c-0.18,0.188-0.344,0.045-0.496-0.072
		c-0.168-0.129-0.383-0.009-0.549-0.091c-0.23-0.114-0.771-0.126-0.238-0.574C68.081,17.156,67.928,17.023,67.766,16.96z
		 M53.556,0.75c0.448,0,0.891,0.022,1.336,0.034v10.501c0.438,0.066,0.732,0.438,1.031,0.724c0.717,0.684,1.438,1.058,2.438,0.604
		c0.373-0.169,0.731,0.125,1.008,0.381c0.192,0.178,0.147,0.371-0.129,0.478c-0.358,0.14-0.709,0.261-1.099,0.097
		c-0.145-0.062-0.305-0.168-0.479-0.022c0.074,0.271,0.345,0.349,0.515,0.521c-0.082,0.125-0.162,0.25-0.244,0.375
		c-0.316,0.082-0.664,0.215-0.549,0.598c0.098,0.326,0.479,0.25,0.762,0.247c0.184-0.002,0.383-0.242,0.545,0.04
		c-0.594,0.091-1.15,0.354-1.775,0.32c-0.283-0.015-0.539-0.045-0.77-0.207c-0.23-0.161-0.438-0.181-0.693-0.017
		c-0.178,0.113-0.374,0.134-0.561,0.101v1.944c0.146,0.075,0.326,0.124,0.582,0.127c0.692,0.011,1.389-0.026,2.08,0.005
		c0.354,0.016,0.778,0.001,0.717,0.616c-0.012,0.106,0.465,0.303,0.736,0.389c0.323,0.102,0.655,0.182,0.977,0.303
		c0.059-0.052,0.129-0.095,0.227-0.105c0.18-0.002,0.359-0.023,0.529,0.054c0.369,0.09,0.607,0.431,0.977,0.521
		c0.137,0.122,0.344,0.222,0.437,0.047c0.315-0.602,0.778-0.303,1.198-0.236c0.355,0.058,0.693,0.303,0.869-0.317
		c0.09-0.32,0.535-0.243,0.813-0.065c0.168,0.108,0.291,0.252,0.478,0.053c0.631,0,1.231,0.063,1.512,0.761
		c0.055,0.114,0.107,0.229,0.166,0.341c0.131,0.25,0.191,0.665,0.566,0.55c0.416-0.127,1.043,0.047,1.163-0.639v-0.002
		c0.593,0.152,1.125,0.517,1.765,0.511c-0.064,0.108-0.107,0.237-0.195,0.319c-0.223,0.207-0.555,0.354-0.367,0.751
		c0.191,0.412,0.518,0.643,0.975,0.683c0.25,0.021,0.51,0.01,0.748,0.076c0.422,0.118,0.865,0.253,1.008,0.748
		c0.189,0.649,0.621,0.844,1.248,0.706c0.41-0.134,0.799-0.181,1.179,0.128c0.182,0.149,0.442,0.113,0.672,0.066
		c0.735-0.153,1.347,0.063,1.769,0.673c0.284,0.412,0.562,0.433,0.926,0.145c0.639,0.017,1.244,0.14,1.754,0.561
		c0.229,0.188,0.506,0.178,0.775,0.189c0.239,0.297,0.59,0.291,0.916,0.312c0.358,0.023,0.645,0.149,0.846,0.451
		c0.83,0.324,1.656,0.654,2.49,0.97c0.108,0.042,0.219,0.083,0.319,0.136c0.049-0.13,0.095-0.261,0.123-0.399
		c0.065-0.308,0.233-0.554,0.597-0.508c0.358,0.046,0.514-0.098,0.614-0.435c0.095-0.306,0.354-0.43,0.69-0.412
		c0.31,0.016,0.486,0.126,0.588,0.429c0.058,0.164,0.193,0.314,0.382,0.535c-0.537-0.671-0.726-1.406-1.027-2.078
		c-0.204-0.46-0.762-0.494-0.887-0.969c-0.123-0.467-0.047-1.015-0.459-1.374c-0.44-0.384-0.213-0.803-0.106-1.219
		c0.028-0.117,0.151-0.13,0.256-0.151c0.02,0.003,0.033,0.014,0.053,0.018c0.016-0.104-0.098-0.168-0.211-0.231v-0.655
		c0.646,0.533,1.256,0.965,1.773,1.486c0.393,0.394,0.893,0.622,1.291,0.992c0.354,0.327,0.133,0.398-0.175,0.451
		c0.004,0.125,0.011,0.25,0.017,0.374c-0.052,0.139-0.105,0.275-0.148,0.415c-0.098,0.314-0.244,0.438-0.523,0.16
		c-0.119-0.117-0.285-0.277-0.43-0.13c-0.156,0.158,0.041,0.307,0.145,0.422c0.248,0.275,0.717,0.46,0.34,0.958
		c-0.014,0.018,0.015,0.099,0.039,0.109c0.689,0.257,0.767,1.233,1.588,1.343c0.285,0.038,0.382,0.229,0.248,0.512
		c-0.106,0.229-0.096,0.475,0.104,0.637c0.229,0.187,0.242-0.128,0.361-0.203c0.086-0.053,0.176-0.041,0.219,0.041
		c0.119,0.222,0.285,0.485,0.099,0.703c-0.269,0.314-0.347,0.587-0.111,0.953c0.111,0.174,0.057,0.314-0.215,0.288
		c-0.424-0.042-0.438,0.307-0.504,0.587c-0.09,0.378,0.186,0.349,0.43,0.444c0.309,0.121,0.416,0.479,0.602,0.75
		c0.301,0.44,0.301,0.955,0.486,1.417c0.08,0.198,0.057,0.418-0.152,0.564c-0.443,0.31-0.549,0.778-0.561,1.273
		c-0.018,0.712-0.182,1.383,0.139,2.14c0.271,0.642,0.779,0.712,1.205,0.947c0.799,0.441,1.08,0.835,0.859,1.712
		c-0.086,0.341-0.09,0.64,0.01,0.974c0.145,0.485,0.41,0.963,0.127,1.5c-0.078,0.152,0.062,0.318,0.195,0.433
		c0.623,0.536,0.625,1.19,0.363,1.896c-0.029,0.054-0.07,0.095-0.127,0.121c-0.386-0.035-0.365-0.474-0.627-0.638
		c-0.095,0.09-0.115,0.224-0.05,0.287c0.813,0.756,0.731,1.739,0.533,2.648c-0.175,0.804-0.875,1.257-1.646,1.533
		c-0.242-0.029-0.312-0.204-0.297-0.401c0.043-0.582-0.328-0.868-0.765-1.118c-0.961-0.551-1.015-0.707-0.67-1.771
		c0.114-0.357,0.262-0.707,0.307-1.085c0.023-0.19,0.074-0.379,0.283-0.446c0.248-0.08,0.313,0.162,0.451,0.276
		c-0.002-0.011,0.01-0.017-0.007-0.029c-0.368-0.275-0.104-0.63-0.118-0.949c-0.005-0.086-0.013-0.171-0.017-0.257
		c0.164-0.303,0.176-0.609-0.088-0.849c-0.188-0.175-0.104-0.381-0.146-0.572c-0.002-0.024-0.011-0.04-0.013-0.062
		c-0.239-0.025-0.479-0.047-0.711-0.1c-0.166-0.038-0.309-0.108-0.414-0.216c-0.053,0.001-0.106,0.006-0.16,0.019
		c-0.049,0.03-0.1,0.049-0.151,0.068c-0.078-0.011-0.135,0.012-0.19,0.037c-0.049,0.233-0.062,0.473-0.054,0.717
		c-0.204-0.042-0.323-0.169-0.411-0.329c-0.035,0.019-0.063,0.046-0.105,0.051c-0.541-0.083-0.924,0-0.975,0.681
		c-0.027,0.369-0.326,0.503-0.627,0.212c-0.568-0.55-1.222-0.87-2.019-0.873c-0.17,0-0.244-0.146-0.336-0.259
		c-0.271-0.307-0.466-0.626-0.188-1.031c0.041-0.061,0.09-0.116,0.137-0.172c-0.047-0.097-0.094-0.193-0.154-0.279
		c-0.229-0.325-0.527-0.347-0.777-0.054c-0.197,0.233-0.24,0.744-0.637,0.598c-0.383-0.142-0.344-0.62-0.336-0.999
		c0.002-0.063,0.006-0.125,0.008-0.188c0.062-0.183,0.234-0.191,0.389-0.229c-0.01-0.007-0.022-0.005-0.031-0.013
		c-0.01-0.034-0.008-0.068-0.016-0.103c-0.406,0.164-0.947,0.052-1.236-0.299c0.009-0.195-0.065-0.368-0.159-0.532
		c-0.123-0.215-0.313-0.428-0.08-0.674c0.233-0.248,0.528-0.414,0.873-0.442c0.297-0.024,0.26,0.263,0.34,0.444
		c0.078-0.176,0.117-0.318,0.131-0.443c-0.172-0.529-0.459-0.645-1.194-0.514c-0.468-0.27-0.89-0.607-1.482-0.615
		c-0.398-0.005-0.346-0.387-0.389-0.672c-0.097-0.655-0.185-1.313-0.342-1.958c-0.007,0.207-0.019,0.413-0.054,0.617
		c-0.035,0.192-0.021,0.398-0.301,0.479c-0.269,0.077-0.382-0.052-0.515-0.214c-0.031-0.09-0.057-0.183-0.094-0.266
		c-0.236,0-0.475-0.002-0.713,0.005c-0.123,0.004-0.326,0.011-0.354,0.075c-0.187,0.44-0.391,0.521-0.756,0.159
		c-0.154-0.153-0.244,0.077-0.314,0.188c-0.217,0.343-0.426,0.524-0.736,0.079c-0.123-0.176-0.348-0.226-0.559-0.262
		c-0.041-0.003-0.082-0.005-0.123-0.005c-0.359,0.34-0.773,0.487-1.266,0.376c-0.654-0.089-0.588,0.377-0.359,0.636
		c0.445,0.51,0.031,1.214,0.482,1.685c0.01,0.011,0.006,0.047-0.004,0.061c-0.761,1.025,0.309,1.776,0.397,2.673
		c0.121,0.044,0.242,0.089,0.362,0.134c0.388,0.225,0.627,0.543,0.66,1.007c0.008,0.121,0.043,0.281,0.125,0.348
		c0.765,0.617,0.631,1.637,1.09,2.389c0.103,0.166,0.086,0.478,0.396,0.346c0.234-0.1,0.156-0.308,0.041-0.479
		c-0.075-0.116-0.116-0.235,0.019-0.33c0.147-0.104,0.244,0.036,0.313,0.119c0.629,0.736,1.32,0.679,2.16,0.339
		c0.403-0.164,0.901-0.594,1.428-0.142c0.082,0.07,0.185-0.048,0.257-0.128c0.112-0.125,0.051-0.467,0.313-0.375
		c0.223,0.077,0.125,0.368,0.146,0.568c0,0.012,0,0.024,0,0.036c0.039,0,0.077,0,0.116-0.001c0.318,0.109,0.681,0.084,0.964,0.299
		c0.024,0.035,0.03,0.076,0.038,0.117c0.037-0.021,0.074-0.039,0.113-0.057c0.135-0.133,0.34-0.162,0.5-0.256
		c0.185-0.019,0.401-0.048,0.407,0.217c0.007,0.281,0.121,0.5,0.291,0.698c0.16,0.186,0.097,0.374-0.03,0.499
		c-0.293,0.289-0.119,0.438,0.127,0.591c0.526,0.529,0.496,1.357,1.013,1.892c0.01,0.285,0.123,0.541,0.313,0.733
		c0.43,0.436,0.437,1.084,0.825,1.549c0.175,0.205-0.075,0.424-0.309,0.503c-0.26,0.088-0.529,0.089-0.797-0.005
		c-0.146-0.052-0.311-0.259-0.443-0.101c-0.149,0.178,0.064,0.333,0.162,0.484h-0.004c-0.26,0.197,0.023,0.573-0.252,0.765
		l-0.007-0.001c-0.174,0.153-0.387,0.231-0.575,0.083c-0.365-0.285-0.802-0.282-1.197-0.245c-0.609,0.056-1.088-0.356-1.666-0.356
		c-0.068,0-0.127-0.05-0.154-0.095c-0.404-0.658-1.09-0.989-1.646-1.468c-0.336-0.289-0.518-0.801-0.371-1.395
		c0.189-0.759,0.342-1.541,0.396-2.328c-0.056-0.062-0.104-0.129-0.181-0.168c-0.178-0.137-0.387-0.148-0.598-0.157
		c-0.139-0.006-0.246-0.053-0.342-0.113c-0.131-0.043-0.262-0.098-0.395-0.166c-0.635-0.326-0.814-0.188-0.851,0.522
		c-0.008,0.146-0.008,0.295-0.028,0.44c-0.037,0.271-0.174,0.501-0.445,0.55c-0.287,0.051-0.389-0.216-0.473-0.423
		c-0.244-0.596-0.652-0.959-1.31-1.036c-0.138-0.017-0.287-0.089-0.396-0.18c-0.375-0.316-0.692-0.059-0.723,0.224
		c-0.064,0.619-0.83,0.429-0.955,0.947c-0.02,0.087-0.227-0.07-0.201-0.199c0.072-0.377-0.061-0.651-0.354-0.878
		c-0.057-0.044-0.111-0.16-0.092-0.217c0.232-0.708-0.438-0.579-0.73-0.757c-0.346-0.21-0.691-0.136-0.898,0.308
		c-0.139-0.269-0.059-0.501-0.086-0.724c-0.256-0.248-0.082-0.52,0.021-0.734c0.08-0.172,0.125-0.273-0.019-0.405
		c-0.004-0.042-0.006-0.083-0.01-0.123c0.402-0.206,0.851-0.005,1.26-0.135c0.002-0.038,0.005-0.075,0.005-0.112
		c-0.355-0.182-0.574-0.523-0.882-0.762c-0.039-0.003-0.078-0.006-0.116-0.008c-0.285-0.271-0.521-0.583-0.731-0.912
		c0,0.217-0.248,0.327-0.48,0.412c-0.369,0.133-0.73,0.213-1.029,0.525c-0.223,0.234-0.551,0.076-0.807-0.08
		c-0.615-0.379-0.965-0.328-1.506,0.18c-0.176,0.166-0.332,0.399-0.629,0.386c-0.871,0.042-0.871,0.042-0.867-0.792
		c0-0.172-0.104-0.454-0.223-0.322c-0.423,0.462-0.595-0.024-0.855-0.155c-0.148-0.075-0.287-0.169-0.43-0.255
		c-0.316,0.021-0.666-0.074-0.896,0.252c-0.381,0.641-0.379,0.639-0.854,0.006c-0.072-0.096-0.166-0.2-0.273-0.242
		c-0.42-0.164-0.469-0.385-0.146-0.694c0.15-0.144,0.287-0.383,0.053-0.462c-0.768-0.26-0.778-1.3-1.647-1.486
		c-0.373-0.08-0.041-0.496,0.024-0.753c-0.717-0.014-1.364-0.301-2.057-0.198c-0.197,0.029-0.271-0.135-0.289-0.333
		c-0.045-0.505,0.389-0.715,0.644-1.022c0.092-0.113,0.317,0.038,0.356,0.23c0.043,0.21,0.152,0.235,0.314,0.15
		c0.092-0.047,0.221-0.099,0.244-0.175c0.059-0.192-0.139-0.216-0.252-0.301c-0.322-0.245-0.807-0.346-0.912-0.792
		c-0.02-0.008-0.039-0.015-0.057-0.022c-0.058-0.008-0.113-0.014-0.172-0.02c-0.099-0.077-0.17-0.157-0.228-0.24
		c-0.063-0.027-0.119-0.07-0.146-0.163c-0.063-0.225,0.086-0.387,0.246-0.525c0.043-0.037,0.088-0.073,0.131-0.11
		c0.029-0.096,0.053-0.194,0.076-0.292c-0.549,0.246-0.934,0.664-1.176,1.239c-0.053,0.125-0.188,0.195-0.328,0.124
		c0.193,0.156,0.383,0.342,0.586,0.511c0.096,0.08,0.195,0.169,0.248,0.283c0.08,0.168,0.305,0.446,0.119,0.514
		c-0.623,0.228-0.148,1.218-0.908,1.257c-0.43,0.022-0.541,0.173-0.383,0.541c0.117,0.273,0.053,0.553,0.064,0.829
		c0.062,0,0.127,0.013,0.186,0.049c0.348,0.216,0.709,0.458,0.734,0.933c0.023,0.429-0.146,0.706-0.578,0.884
		c-0.661,0.274-1.023,0.825-1.221,1.49v21.189c0.084,0.133,0.162,0.277,0.231,0.443c0.396,0.943,0.354,1.794,0.006,2.689
		c-0.067,0.172-0.129,0.354-0.237,0.479v1.294c0.056,0.074,0.123,0.143,0.217,0.197c0.197,0.117,0.369,0.271,0.553,0.41
		c0.693,0.021,1.27,0.233,1.59,0.916c0.145,0.303,0.408,0.438,0.752,0.488c0.41,0.061,0.834,0.116,1.191,0.366
		c-0.1,0.826-0.072,1.072,0.293,1.974c0.148,0.367,0.225,0.713-0.037,1.057c0,0.025-0.002,0.053-0.002,0.078
		c0.041-0.002,0.08-0.012,0.121,0.004c0.311,0.543,0.25,0.979-0.34,1.455c-0.406,0.328-0.732,0.752-1.209,0.998
		c-0.297,0.152-0.34,0.33-0.144,0.652c0.166,0.272,0.636,0.625,0.056,0.979c-0.123,0.111-0.269,0.209-0.367,0.338
		c-0.361,0.461-0.797,0.633-1.381,0.475c-0.461-0.121-0.897-0.078-1.293,0.168v0.743c0.1,0.037,0.17,0.097,0.135,0.251
		c-0.021,0.088-0.073,0.145-0.135,0.186v27.604c-0.445,0.012-0.889,0.034-1.336,0.034c-29.117,0-52.806-23.688-52.806-52.806
		C0.748,24.442,24.439,0.75,53.556,0.75z"/>
</g>
<g>
</g>
<g>
</g>
<g>
</g>
<g>
</g>
<g>
</g>
<g>
</g>
<g>
</g>
<g>
</g>
<g>
</g>
<g>
</g>
<g>
</g>
<g>
</g>
<g>
</g>
<g>
</g>
<g>
</g>
</svg>
