<?xml version="1.0" encoding="iso-8859-1"?>
<!-- Generator: Adobe Illustrator 16.0.0, SVG Export Plug-In . SVG Version: 6.00 Build 0)  -->
<!DOCTYPE svg PUBLIC "-//W3C//DTD SVG 1.1//EN" "http://www.w3.org/Graphics/SVG/1.1/DTD/svg11.dtd">
<svg version="1.1" id="Capa_1" xmlns="http://www.w3.org/2000/svg" xmlns:xlink="http://www.w3.org/1999/xlink" x="0px" y="0px"
	 width="107.112px" height="107.112px" viewBox="0 0 107.112 107.112" style="enable-background:new 0 0 107.112 107.112;"
	 xml:space="preserve">
<g>
	<path d="M12.695,80.738c-0.076-0.305-0.218-0.594-0.584-0.629c-0.141-0.014-0.21,0.078-0.232,0.186
		c0.155,0.285,0.313,0.568,0.475,0.852c0.023,0.007,0.039,0.023,0.066,0.027C12.648,81.206,12.685,80.956,12.695,80.738z"/>
	<path d="M53.556,0C24.026,0,0,24.025,0,53.557c0,29.531,24.026,53.556,53.556,53.556s53.556-24.024,53.556-53.556
		C107.112,24.025,83.086,0,53.556,0z M0.866,50.235c-0.062,1.096-0.103,2.2-0.103,3.321c0,1.094,0.039,2.172,0.097,3.242
		c-0.065-1.074-0.109-2.152-0.109-3.242C0.75,52.44,0.797,51.334,0.866,50.235z M53.556,106.362c-4.367,0-8.608-0.543-12.67-1.548
		c-7.9-2.334-14.986-6.897-21.248-13.725c-2.861-3.121-5.284-6.438-7.285-9.945c-0.291-0.09-0.375-0.409-0.469-0.67
		c-0.02-0.055-0.019-0.119-0.006-0.18c-1.621-2.97-2.938-6.076-3.954-9.32c-0.084-0.016-0.176-0.017-0.292,0.016
		c-0.576,0.156-0.979-0.092-1.252-0.586c-0.234-0.426-0.484-0.832-0.937-1.072c-0.397-0.211-0.113-0.564-0.158-0.852
		c-0.003-0.082-0.005-0.164-0.008-0.245c-0.536-0.302-0.615-0.859-0.767-1.374c-0.087-0.299-0.156-0.604-0.234-0.905
		c-0.201-0.927-0.926-1.64-1.058-2.597c-0.015-0.108-0.104-0.206-0.222-0.17c-0.23,0.074-0.129,0.258-0.123,0.421
		c0.027,0.754,0.158,1.5,0.219,2.251c-0.129-0.199-0.26-0.396-0.393-0.592c-0.768-4.006-1.23-8.043-1.032-12.135
		c0.185-3.828,0.753-7.597,1.698-11.327c0.592-2.336,1.332-4.596,2.283-6.798c0.001,0,0.001,0,0.001,0
		c0.11-0.453,0.28-0.884,0.503-1.295c0.369-0.429,0.479-0.985,0.713-1.48c0.783-1.651,1.672-3.237,2.637-4.776
		c0.35-0.105,0.689-0.256,1.004-0.487c-0.537,0.828-1.078,1.653-1.594,2.496c-0.352,0.574-0.543,1.208-0.828,1.807
		c-0.293,0.064-0.366,0.256-0.374,0.539c-0.007,0.266-0.124,0.395-0.321,0.373c0.222,0.248,0.275,0.618,0.494,0.916
		c0.297-0.35,0.658-0.604,0.855-1.001c0.407-0.818,1.014-1.491,1.6-2.173c2.303-4.978,5.393-9.606,9.299-13.874
		C25.915,9.198,33.022,4.617,40.948,2.284c4.043-0.994,8.263-1.532,12.607-1.532c29.117,0,52.806,23.688,52.806,52.807
		C106.361,82.676,82.674,106.362,53.556,106.362z"/>
</g>
<g>
</g>
<g>
</g>
<g>
</g>
<g>
</g>
<g>
</g>
<g>
</g>
<g>
</g>
<g>
</g>
<g>
</g>
<g>
</g>
<g>
</g>
<g>
</g>
<g>
</g>
<g>
</g>
<g>
</g>
</svg>
