<?xml version="1.0" encoding="iso-8859-1"?>
<!-- Generator: Adobe Illustrator 16.0.0, SVG Export Plug-In . SVG Version: 6.00 Build 0)  -->
<!DOCTYPE svg PUBLIC "-//W3C//DTD SVG 1.1//EN" "http://www.w3.org/Graphics/SVG/1.1/DTD/svg11.dtd">
<svg version="1.1" id="Capa_1" xmlns="http://www.w3.org/2000/svg" xmlns:xlink="http://www.w3.org/1999/xlink" x="0px" y="0px"
	 width="107.112px" height="107.112px" viewBox="0 0 107.112 107.112" style="enable-background:new 0 0 107.112 107.112;"
	 xml:space="preserve">
<g>
	<g>
		<path d="M25.084,63.485c-0.031-0.087-0.044-0.179-0.068-0.267c-0.024-0.029-0.054-0.05-0.064-0.1
			c-0.262-1.162-0.597-2.309-0.728-3.495c-0.026-0.231-0.084-0.452-0.213-0.651c-0.326-0.498-0.583-0.506-0.879,0.014
			c-0.221,0.389-0.446,0.463-0.777,0.137c-0.141-0.139-0.385-0.261-0.511-0.143c-0.322,0.307-0.702,0.25-1.067,0.269
			c0.113,0.399,0.146,0.813,0.084,1.216c-0.095,0.602,0.13,1.119,0.332,1.646c0.168,0.437,0.535,0.558,0.979,0.503
			c0.197-0.023,0.453-0.201,0.536,0.152c0.269-0.459,0.647-0.312,0.952-0.104c0.38,0.262,0.737,0.545,1.162,0.743
			c0.213,0.099,0.396,0.28,0.415,0.56c0.006,0.09,0.026,0.153,0.054,0.204c0.003-0.009,0.005-0.017,0.008-0.024
			c-0.027-0.062-0.047-0.135-0.057-0.232C25.227,63.766,25.154,63.619,25.084,63.485z"/>
		<path d="M22.714,62.781c-0.001-0.008-0.006-0.008-0.007-0.016c-0.001,0-0.001,0-0.001,0
			C22.712,62.768,22.715,62.783,22.714,62.781z"/>
		<path d="M53.935,15.083c-0.393,0.437-0.297,0.79,0.254,1.038c0.007,0.003,0.009,0.009,0.016,0.013v-1.235
			c-0.02-0.043-0.038-0.087-0.066-0.125c-0.131-0.17-0.319-0.185-0.516-0.119c-0.105,0.036-0.197,0.111-0.178,0.228
			C53.501,15.201,53.786,14.887,53.935,15.083z"/>
		<path d="M46.286,73.874c-0.051-0.021-0.104-0.034-0.153-0.051c-0.044,0.006-0.085,0.021-0.13,0.024
			c-0.145,0.024-0.281,0.072-0.404,0.152c0.004,0.041,0.014,0.08,0.016,0.123c0.006,0.203,0.109,0.367,0.297,0.443
			c0.276,0.109,0.619,0.369,0.821-0.025C46.925,74.165,46.597,73.988,46.286,73.874z"/>
		<path d="M32.927,56.436c0.215-0.043,0.406,0.064,0.533,0.24c0.063,0.088,0.131,0.146,0.203,0.193
			c-0.058-0.059-0.113-0.131-0.162-0.242C33.395,56.385,33.141,56.316,32.927,56.436z"/>
		<path d="M38.544,57.754c0.008,0.004,0.014,0.01,0.02,0.014c0.025,0.013,0.037,0.015,0.041-0.002
			c0.002-0.004,0.002-0.002,0.004-0.006c-0.011,0-0.021,0-0.042-0.013C38.56,57.75,38.552,57.75,38.544,57.754z"/>
		<path d="M36.714,57.172c-0.051,0.024-0.1,0.039-0.148,0.051c0.02,0.002,0.036,0,0.057,0.004c0.327,0.045,0.697,0.119,0.938,0.324
			c0.327,0.277,0.638,0.323,0.983,0.203c-0.09-0.052-0.182-0.107-0.25-0.183C37.857,57.08,37.388,56.842,36.714,57.172z"/>
		<path d="M34.336,56.791c-0.099,0.088-0.202,0.139-0.304,0.169c0.033-0.002,0.063,0.001,0.099-0.004
			c0.388-0.052,0.625,0.162,0.756,0.521c0.122,0.332,0.175,0.697,0.435,0.967c-0.098-0.689,0.268-1.161,0.91-1.223
			c-0.281-0.067-0.538-0.276-0.776-0.424C35.046,56.541,34.742,56.438,34.336,56.791z"/>
		<path d="M31.904,56.672c-0.184-0.021-0.264-0.119-0.299-0.262c-0.002,0.363,0.062,0.745,0.57,0.879
			c0.146,0.037,0.135,0.271,0.148,0.294c-0.037-0.144,0.064-0.508,0.217-0.786C32.326,56.895,32.114,56.699,31.904,56.672z"/>
		<path d="M32.54,56.797c0.064-0.029,0.13-0.084,0.195-0.182c0.055-0.081,0.121-0.141,0.191-0.18
			c-0.025,0.006-0.049,0.004-0.073,0.013C32.744,56.49,32.632,56.627,32.54,56.797z"/>
		<path d="M51.646,34.839c0.271-0.079,0.711-0.108,0.713-0.397c0.004-0.295-0.275-0.608-0.635-0.699
			c-0.244-0.061-0.447-0.162-0.604-0.358c0.262,0.2,0.229,0.379-0.021,0.586c-0.193,0.161-0.387,0.378-0.234,0.651
			C51.036,34.931,51.355,34.925,51.646,34.839z"/>
		<path d="M53.439,42.766c-0.229-0.053-0.459-0.034-0.689-0.003c-0.811,0.11-1.098,0.798-0.605,1.461
			c0.221,0.297,0.527,0.461,0.869,0.596c0.646,0.255,0.701,0.467,0.324,1.047c-0.211,0.326-0.092,0.587,0.311,0.763
			c0.193,0.084,0.408,0.139,0.531,0.37c0.008,0.014,0.018,0.027,0.025,0.042v-4.439C53.974,42.751,53.71,42.829,53.439,42.766z"/>
		<path d="M47.26,66.461c0.009-0.025,0.021-0.047,0.03-0.072c-0.012,0.025-0.025,0.047-0.039,0.071
			C47.255,66.46,47.257,66.461,47.26,66.461z"/>
		<path d="M44.492,34.422c0.037-0.052,0.068-0.099,0.059-0.11c-0.547-0.65,0.271-1.668-0.609-2.23
			c-0.291-0.185-0.156-0.292,0.093-0.423c0.221-0.116,0.748-0.007,0.63-0.31c-0.158-0.404-0.104-0.976-0.58-1.207
			c-0.382-0.184-0.795-0.634-1.184,0.103c-0.115,0.217-0.689,0.101-0.873,0.487c-0.059,0.575-0.422,0.974-0.767,1.382
			c0.012,0.02,0.026,0.032,0.037,0.054c0.091,0.302-0.043,0.582-0.107,0.86c-0.075,0.329-0.325,0.471-0.669,0.428
			c-0.675-0.083-0.949,0.227-0.78,0.896c0.044,0.179,0.163,0.345-0.001,0.518c0.314,0.12,0.604,0.136,0.77-0.35
			c0.186-0.141,0.393-0.21,0.625-0.193c0.579,0.273,0.053,0.522-0.017,0.781c-0.034,0.014-0.069,0.027-0.104,0.041
			c-0.245,0.068-0.392,0.19-0.491,0.339c0.074,0.281,0.059,0.583,0.052,0.881c0.001-0.002,0.001-0.003,0.002-0.005
			c0.11-0.535,0.532-0.813,1.062-0.742c0.41,0.055,0.658,0.498,0.604,1.058c-0.034,0.346-0.002,0.707-0.369,0.987
			c0.473,0.043,0.367-0.302,0.365-0.438c-0.006-0.451,0.079-0.859,0.355-1.212c0.141-0.178,0.129-0.325,0.029-0.515
			c-0.232-0.441-0.146-0.854,0.298-0.992C43.425,34.354,43.966,34.084,44.492,34.422z"/>
		<path d="M46.337,63.105c-0.518-0.018-0.957-0.178-1.291-0.559c-0.391,0.273-0.595,0.108-0.671-0.304
			c-0.05-0.267-0.104-0.53-0.208-0.831c-0.143,0.578-1.08,0.785-0.809,1.363c0.209,0.449,0.063,1.104,0.604,1.395
			c0.105-0.328,0.449-0.474,0.68-0.617c0.229-0.144,0.541,0.32,0.91,0.35c0.203,0.016,0.107,0.267,0.082,0.428
			c-0.032,0.204-0.05,0.412-0.074,0.618c0.26,0.353,0.667,0.385,1.039,0.491c0.172-0.082,0.325-0.2,0.527-0.088
			c0.344,0.263,0.272,0.607,0.195,0.955c-0.01,0.027-0.021,0.054-0.031,0.082c0.009-0.021,0.021-0.037,0.029-0.06
			c0.186-0.168,0.32-0.013,0.469,0.063c0.203-0.518,0.318-1.066,0.549-1.572c-0.365-0.297-0.594-0.71-0.838-1.094
			C47.21,63.275,46.816,63.124,46.337,63.105z"/>
		<path d="M31.57,55.855c0.003,0.107,0.008,0.217,0.009,0.324c0.001,0.09,0.011,0.164,0.026,0.23
			c0.001-0.074,0.004-0.148,0.006-0.219C31.619,56.034,31.601,55.928,31.57,55.855z"/>
		<path d="M47.337,58.283c-0.005-0.021-0.006-0.044-0.008-0.064c-0.002,0.004-0.004,0.004-0.004,0.01
			C47.322,58.264,47.32,58.278,47.337,58.283z"/>
		<path d="M47.35,58.287c-0.009,0.001-0.009-0.004-0.013-0.005c0.003,0.017,0,0.036,0.006,0.052
			C47.331,58.379,47.434,58.282,47.35,58.287z"/>
		<path d="M31.778,54.98c0.093-0.115,0.063-0.201,0.025-0.284c-0.026,0.31-0.205,0.555-0.54,0.75
			c-0.121,0.071-0.194,0.218-0.244,0.387c0.265-0.106,0.467-0.164,0.551,0.022C31.559,55.547,31.568,55.243,31.778,54.98z"/>
		<path d="M18.561,23.822c-0.052,0.024-0.103,0.051-0.147,0.09v0.001h0.002C18.458,23.873,18.509,23.847,18.561,23.822z"/>
		<path d="M53.562,50.01c-0.105,0.168-0.412,0.226-0.33,0.482c0.076,0.236,0.367-0.104,0.525,0.235
			c-0.467,0.081-0.887,0.291-1.355,0.323c-0.084,0.09-0.178,0.177-0.268,0.251c-0.396,0.033-0.813,0.349-1.191-0.059
			c-0.004-0.07,0.002-0.136,0.004-0.203c-0.396-0.073-0.795,0.013-1.193,0.023c-0.039,0.078-0.078,0.156-0.127,0.25
			c-0.346,0.096-0.68,0.209-0.883,0.539c-0.033,0.055-0.08,0.131-0.127,0.133c-0.779,0.049-1.512,0.615-2.324,0.274
			c-0.002,0.003-0.003,0.006-0.004,0.009c0.012,0.029,0.025,0.06,0.035,0.085c0.189,0.478,0.54,0.617,0.997,0.544
			c0.651-0.103,1.067,0.127,1.222,0.784c0.123,0.405,0.037,0.725-0.332,0.981c-0.443,0.31-0.776,0.81-1.424,0.707
			c-0.221-0.035-0.232,0.142-0.244,0.3c0,0.262-0.231,0.336-0.383,0.475c-0.27,0.102-0.383,0.349-0.512,0.572
			c-0.268,0.467-0.232,0.536,0.299,0.59c0.398,0.039,0.743,0.25,1.14,0.313c0.317,0.051,0.22,0.349,0.243,0.599
			c0.039-0.295,0.279-0.246,0.469-0.271c0.609-0.073,1.211,0.09,1.82,0.047c0.186-0.013,0.357,0.091,0.348,0.285
			c-0.043,0.853,0.633,1.139,1.193,1.452c1.047,0.591,1.064,0.56,1.287,1.673c0.283-0.343,0.291-0.804,0.646-1.081
			c0.453-0.354,0.605-0.35,0.801,0.179c0.068,0.188,0.286,0.328,0.202,0.57c-0.004,0.09-0.002,0.18-0.023,0.269
			c-0.01,0.006-0.016,0.016-0.025,0.021c0.059,0.024,0.105,0.058,0.158,0.085V49.584c-0.021,0.029-0.033,0.054-0.059,0.085
			C53.949,49.778,53.693,49.8,53.562,50.01z"/>
		<path d="M53.456,47.983c-0.15,0.158-0.369,0.042-0.566-0.031c0,0.004,0,0.008,0,0.012c0.006,0.077-0.006,0.151-0.006,0.227
			c0.129,0.333,0.295,0.29,1.006,0.093c0.061,0.151,0.196,0.228,0.314,0.32v-1.26C53.945,47.546,53.689,47.741,53.456,47.983z"/>
		<path d="M44.691,10.521c0.099-0.101,0.211-0.195,0.344-0.278C44.859,10.317,44.754,10.412,44.691,10.521z"/>
		<path d="M35.079,50.392c0.131-0.033,0.25-0.072,0.34-0.105C35.335,50.32,35.202,50.342,35.079,50.392z"/>
		<path d="M32.837,53.062c0.375-0.021,0.5-0.122,0.502-0.458c0.174-0.408,0.427-0.784,0.484-1.237
			c0.395-0.186,0.785-0.357,1.016-0.783c0.053-0.099,0.145-0.153,0.24-0.192c-0.103,0.026-0.211,0.049-0.326,0.055
			c-0.334,0.017-0.477-0.277-0.67-0.464c-0.168-0.161-0.367-0.227-0.564-0.245c-0.25-0.022-0.395-0.141-0.449-0.353
			c-0.061-0.227,0.051-0.393,0.256-0.519c0.248-0.151,0.543-0.33,0.451-0.667c-0.043-0.16-0.244-0.277-0.121-0.487
			c-0.061,0.292-0.256,0.349-0.522,0.321c-0.188-0.02-0.288-0.158-0.425-0.25c-0.461-0.312-1.131-0.212-1.48,0.213
			c-0.721,0.877-1.332,1.074-2.397,0.738c-0.348-0.109-0.698-0.15-1.056-0.137c0.018,0.034,0.039,0.065,0.041,0.11
			c0.01,0.052,0.002,0.087,0.004,0.132c0.536,0.208,0.367,0.843,0.613,1.287c0.438-0.419,0.853-0.373,1.276,0.048
			c0.153,0.151,0.415,0.192,0.626,0.285c0.189,0.084,0.436,0.14,0.428,0.399c-0.008,0.214-0.227,0.298-0.397,0.363
			c-0.239,0.09-0.427-0.044-0.511-0.252c-0.131-0.324-0.299-0.507-0.661-0.33c-0.071,0.035-0.182,0.088-0.188,0.143
			c-0.021,0.19,0.118,0.46-0.229,0.466c-0.327,0.006-0.694,0.131-0.97-0.134c-0.318-0.306-0.756-0.31-1.201-0.606
			c0.086,0.213,0.127,0.305,0.16,0.399c0.082,0.225,0.591,0.378,0.152,0.689c-0.357,0.253-0.889,0.087-1.089-0.295
			c-0.019-0.037-0.036-0.077-0.046-0.117c-0.082-0.36-0.043-0.893-0.479-0.931c-0.161-0.014-0.294,0.048-0.416,0.134
			c-0.02,0.096-0.024,0.209-0.016,0.339c0.01,0.127-0.11,0.221-0.154,0.338c-0.107,0.29-0.037,0.487,0.281,0.574
			c0.263,0.072,0.518,0.171,0.771,0.266c0.436,0.161,0.488,0.487,0.137,0.802c-0.152,0.138-0.334,0.246-0.439,0.446
			c0.797,0.003,0.802,0.003,0.848,0.846c0.018,0.35,0.225,0.527,0.52,0.635c0.285,0.104,0.555,0.235,0.816,0.383
			c-0.025-0.608,0.209-0.696,1.003-0.631c0.841,0.07,1.729,0.236,2.431-0.49c0.126-0.131,0.309-0.252,0.51-0.172
			c0.245,0.096,0.082,0.334,0.142,0.494c0.005,0.014,0.003,0.023,0.007,0.037C31.753,53.605,32.146,53.1,32.837,53.062z"/>
		<path d="M31.745,54.545c0.01,0.053,0.035,0.102,0.058,0.15c0.011-0.135-0.003-0.279-0.058-0.441
			C31.745,54.352,31.728,54.443,31.745,54.545z"/>
		<path d="M34.033,56.96c-0.143,0.007-0.264-0.022-0.369-0.091C33.777,56.982,33.903,56.998,34.033,56.96z"/>
		<path d="M54.204,48.605v0.979c0.321-0.422,0.331-0.718,0.015-0.969C54.213,48.612,54.209,48.608,54.204,48.605z"/>
		<path d="M54.204,47.042v0.303c0.019-0.013,0.033-0.027,0.052-0.04C54.342,47.238,54.266,47.14,54.204,47.042z"/>
		<path d="M53.556,0C24.026,0,0,24.025,0,53.557c0,29.531,24.026,53.556,53.556,53.556s53.556-24.024,53.556-53.556
			C107.112,24.025,83.086,0,53.556,0z M0.75,53.557c0-18.452,9.519-34.711,23.896-44.157c-2.781,1.913-5.44,4.127-7.974,6.654
			C6.259,26.449,1.054,38.948,1.054,53.557c0,14.647,5.205,27.158,15.619,37.533c2.456,2.445,5.033,4.592,7.723,6.461
			C10.158,88.082,0.75,71.9,0.75,53.557z M12.111,80.109c0.366,0.035,0.508,0.324,0.584,0.629c-0.01,0.219-0.047,0.469-0.275,0.436
			c-0.355-0.053-0.434-0.416-0.535-0.699C11.829,80.322,11.891,80.088,12.111,80.109z M14.18,79.454
			c1.317,0.354,1.956,1.386,2.466,2.535c0.168,0.377,0.173,0.762-0.156,1.037c-0.337,0.282-0.674,0.09-0.967-0.134
			C14.363,82.016,13.912,80.857,14.18,79.454z M36.906,94.71c-0.225-0.022-0.52-0.063-0.49-0.34
			c0.027-0.265,0.357-0.229,0.566-0.274c0.209-0.043,0.393,0.063,0.387,0.293C37.361,94.658,37.124,94.682,36.906,94.71z
			 M44.55,98.031c-0.127-0.084-0.254-0.168-0.381-0.254c-0.114-0.162-0.286-0.238-0.457-0.32c-0.296-0.145-0.354-0.402-0.281-0.689
			c0.076-0.293,0.35-0.256,0.567-0.282c0.142-0.021,0.292,0.03,0.436,0.016c0.857-0.09,1.059,0.021,1.107,0.632
			C45.588,97.71,45.302,97.973,44.55,98.031z M46.678,91.066c-0.129,0.082-0.196,0.129-0.114,0.271c0,0,0.001,0.004,0,0.004
			c-0.783,0.479-1.594,0.807-2.52,0.416c-0.193-0.082-0.398-0.252-0.592-0.148c-0.593,0.311-0.811-0.066-0.967-0.508
			c-0.15-0.422-0.535-0.689-0.722-1.117c0.456-0.143,0.824,0.271,1.079,0.234c0.575-0.084,1.251,0.018,1.73-0.438
			c0.333-0.317,0.477-0.399,0.593,0.168c0.133,0.653,0.794,0.912,1.403,0.631c0.041,0.002,0.083,0.002,0.124,0.002
			C46.919,90.751,46.879,90.939,46.678,91.066z M51.156,84.361c-0.262-0.006-0.449-0.119-0.445-0.408
			c0.004-0.213,0.131-0.371,0.348-0.363c0.289,0.008,0.398,0.252,0.512,0.461C51.525,84.303,51.357,84.365,51.156,84.361z
			 M54.204,106.346V78.697c-0.06-0.016-0.118-0.032-0.178-0.045c-0.313-0.072-0.621-0.051-0.76,0.268
			c-0.215,0.496-0.611,0.475-1.002,0.377c-0.51-0.129-1.016-0.264-1.545-0.184c-0.307,0.047-0.439-0.33-0.74-0.277
			c-0.24-0.025-0.465-0.134-0.695-0.212c0.025,0.011,0.053,0.019,0.076,0.03c0.199,0.102,0.42,0.176,0.604,0.312
			c0.145,0.232,0.234,0.492,0.314,0.754c0.01,0.176,0.078,0.303,0.27,0.342c0.17,0.033,0.229,0.148,0.213,0.316
			c-0.018,0.186-0.146,0.238-0.295,0.271c-0.203,0.047-0.398,0.123-0.6,0.172c-0.309,0.074-0.523,0.18-0.529,0.559
			c-0.004,0.23-0.195,0.402-0.363,0.564c-0.148,0.141-0.357,0.303-0.225,0.525c0.121,0.201,0.338,0.069,0.516,0.033
			c0.49-0.103,1.004-0.148,1.244-0.699c0.033-0.08,0.146-0.06,0.23-0.06c0.547-0.092,0.881,0.17,1.049,0.666
			c0.207,0.606-0.053,0.938-0.709,0.985c-0.613,0.045-1.156,0.347-1.721,0.56c-0.254,0.097-0.314,0.42-0.168,0.593
			c0.639,0.752,0.313,1.424-0.102,2.104c-0.084,0.082-0.168,0.166-0.25,0.248c-0.293-0.287-0.629-0.484-1.051-0.498
			c-0.742-0.022-0.963-0.714-1.396-1.121c-0.149-0.142,0.1-0.226,0.226-0.271c0.359-0.125,0.369-0.35,0.2-0.637
			c-0.247-0.422-0.41-0.869-0.382-1.369c-0.39-0.092-0.641-0.211-0.231-0.625c0.23-0.232,0.509-0.494,0.141-0.877
			c-0.176-0.184-0.12-0.455,0.106-0.592c0.15-0.091,0.285-0.208,0.43-0.309c-0.354,0-0.677-0.051-0.852-0.549
			c-0.107-0.308-0.541-0.277-0.85-0.162c-0.228,0.086-0.531,0.178-0.508,0.483c0.025,0.345,0.262,0.57,0.609,0.628
			c0.199,0.032,0.349,0.133,0.502,0.245c0.328,0.24,0.302,0.478-0.077,0.567c-0.362,0.089-0.619,0.22-0.687,0.607
			c0,0.002-0.039,0.002-0.055-0.006c-0.018-0.008-0.029-0.029-0.044-0.043c-0.821,0.037-0.854,0.074-0.877,1.004
			c0.001,0.041,0.003,0.082,0.005,0.123c0.266-0.055,0.504,0.064,0.75,0.129c0.393,0.896,0.334,0.975-0.754,1.012
			c0.002,0.123,0.004,0.248,0.006,0.371c0.476,0.084,0.854,0.125,0.707,0.857c-0.101,0.498,0.084,1.137,0.701,1.424
			c0.178,0.082,0.367,0.201,0.268,0.422c-0.101,0.223-0.25-0.055-0.374-0.018c-0.694,0.213-1.417-0.174-2.122,0.154
			c-0.462,0.216-1.24,0.041-1.637-0.25c-0.007-0.006-0.015-0.008-0.021-0.014c-0.073-0.057-0.137-0.113-0.177-0.177
			c-0.002-0.039-0.004-0.078-0.007-0.118c-0.042,0.094-0.117,0.184-0.122,0.278c-0.052,1.097-0.268,1.276-1.395,1.147
			c-0.082-0.01-0.163-0.026-0.244-0.043c-0.152-0.498-0.503-0.729-1.01-0.754c-0.406-0.029-0.786-0.117-1.018-0.502
			c-0.475-0.209-0.951-0.412-1.421-0.631c-0.088-0.041-0.215-0.148-0.21-0.215c0.046-0.607-0.382-0.635-0.809-0.732
			c-0.578-0.133-0.875-0.684-1.33-1.008c-0.172-0.121-0.061-0.367,0.039-0.52c0.22-0.338,0.105-0.561-0.161-0.811
			c-0.37-0.347-0.546-1.496-0.347-1.949c0.138-0.313,0.438-0.271,0.695-0.332c-0.422-0.211-0.668-0.531-0.748-1.014
			c-0.07-0.427-0.512-0.593-0.837-0.32c-0.169,0.141-0.31,0.229-0.493,0.121c-0.289-0.172-0.401,0.02-0.453,0.227
			c-0.052,0.213,0.045,0.371,0.311,0.342c0.333-0.037,0.328,0.125,0.25,0.385c-0.276,0.922-0.268,0.922-1.232,0.682
			c-0.436-0.106-0.665,0.06-0.586,0.521c0.08,0.466,0.24,0.929,0.078,1.397c-0.124,0.363-0.234,0.763-0.785,0.427
			c-0.39-0.239-0.549,0.002-0.5,0.379c0.039,0.302-0.02,0.449-0.352,0.406c-0.192-0.022-0.295,0.125-0.418,0.239
			c-0.518,0.472-0.584,0.445-0.734-0.256c-0.018-0.084-0.036-0.166-0.055-0.248c-0.182-0.559-0.621-0.963-0.888-1.479
			c-0.282-0.545-0.897-0.684-1.509-0.664c-0.107,0.229-0.238,0.438,0.022,0.678c0.171,0.156,0.224,0.396,0.175,0.746
			c-0.744-0.607-1.563-0.908-2.477-0.916c-0.477-0.146-0.938-0.402-1.465-0.207c-0.054,0.021-0.154,0.027-0.18-0.004
			c-0.484-0.588-1.257-0.641-1.879-0.951c-0.782-0.391-1.266-1.115-2.027-1.494c-0.213-0.104-0.353-0.188-0.619-0.108
			c-0.339,0.103-0.741-0.052-0.813-0.42c-0.187-0.957-1.05-1.044-1.695-1.339c-0.738-0.34-1.025-0.737-0.787-1.543
			c-0.291-0.553-0.527-1.129-0.734-1.721c-0.117-0.334-0.304-0.645-0.652-0.807c-0.562-0.131-0.914-0.502-1.11-1.02
			c-0.226-0.59-0.791-0.711-1.267-0.947c-0.184-0.092-0.336,0-0.293,0.244c0.022,0.125,0.07,0.244,0.088,0.367
			c0.025,0.188,0.053,0.418-0.189,0.467c-0.244,0.047-0.349-0.18-0.338-0.361c0.037-0.646-0.285-1.154-0.553-1.699
			c-0.162-0.33-0.34-0.443-0.684-0.35c-0.576,0.156-0.979-0.092-1.252-0.586c-0.234-0.426-0.484-0.832-0.937-1.072
			c-0.397-0.211-0.113-0.564-0.158-0.852c-0.003-0.082-0.005-0.164-0.008-0.246c-0.536-0.301-0.615-0.858-0.767-1.373
			c-0.087-0.299-0.156-0.604-0.234-0.905c-0.201-0.927-0.926-1.64-1.058-2.597c-0.015-0.108-0.104-0.207-0.222-0.17
			c-0.23,0.074-0.129,0.258-0.123,0.42c0.027,0.755,0.158,1.5,0.219,2.252c-0.129-0.199-0.26-0.396-0.393-0.592
			c-0.768-4.006-1.23-8.043-1.032-12.135c0.185-3.828,0.753-7.597,1.698-11.327c0.592-2.336,1.332-4.596,2.283-6.798
			c0.001,0,0.001,0,0.001,0c0.11-0.453,0.28-0.884,0.503-1.295c0.369-0.429,0.479-0.985,0.713-1.48
			c0.783-1.651,1.672-3.237,2.637-4.776c0.35-0.105,0.689-0.256,1.004-0.487c-0.537,0.828-1.078,1.653-1.594,2.496
			c-0.352,0.574-0.543,1.208-0.828,1.807c-0.293,0.064-0.366,0.256-0.374,0.539c-0.007,0.266-0.124,0.395-0.321,0.373
			c0.222,0.248,0.275,0.618,0.494,0.916c0.297-0.35,0.658-0.604,0.855-1.001c0.431-0.864,1.084-1.566,1.699-2.29
			c0.594-0.7,1.134-1.443,1.707-2.149c0.656-0.811,1.368-1.628,2.234-2.262c0.302,0.084,0.563-0.004,0.791-0.197
			c0.16-0.133,0.334-0.24,0.519-0.333c0.871-0.444,1.104-0.366,1.448,0.484c-0.15,0.637-0.533,1.15-0.946,1.633
			c-0.673,0.788-1.495,1.451-1.724,2.562c-0.114,0.552-0.627,0.661-1.51,0.444c0.481,0.994,0.389,1.918-0.27,2.793
			c-0.137,0.183-0.233,0.352-0.492,0.239c-0.004-0.003-0.006-0.007-0.01-0.011c-0.135,0.464-0.253,0.92-0.741,1.217
			c-0.321,0.195-0.33,0.86-0.95,0.643c-0.016,0.08-0.052,0.162-0.045,0.24c0.016,0.181,0.104,0.533,0.184,0.462
			c0.408-0.354,0.689,0.62,1.053,0.068c0.171-0.259,0.443-0.291,0.708-0.355c0.704-0.173,0.772-0.341,0.39-0.97
			c-0.092-0.152-0.182-0.414,0.025-0.4c0.6,0.038,0.756-0.4,1.012-0.964c0.152,0.719,0.672,1.079,0.686,1.683
			c0.007,0.278,0.16,0.375,0.422,0.267c0.194-0.08,0.384-0.169,0.574-0.255c-0.036-0.002-0.073-0.004-0.109-0.007
			c-0.346-0.302-0.715-0.583-0.385-1.135c0.063-0.104-0.066-0.315-0.085-0.479c-0.083-0.694-0.115-1.38,0.458-1.918
			c0.088-0.041,0.175-0.082,0.262-0.123c0.639-0.479,1.104-1.126,1.648-1.695c0.295-0.308,0.546-0.549,1.058-0.445
			c0.456,0.092,0.947-0.04,1.325-0.388c-0.141-1.186,0.562-2.051,1.15-2.946c0.412-0.627,0.895-1.207,1.348-1.807
			c0.074-0.1,0.172-0.104,0.277-0.054c0.023-0.643,0.441-0.736,0.979-0.784c1.004-0.09,1.973-0.324,2.869-0.957
			c-0.285-0.217-0.648-0.117-0.818-0.393c-0.012-0.018-0.026-0.034-0.033-0.054c-0.258-0.694,0.42-0.868,0.715-1.246
			c0.199-0.256,0.496-0.411,0.833-0.186c0.321,0.216,0.312,0.771-0.044,1.111c-0.162,0.156-0.385,0.25-0.58,0.372
			c0.643,0.308,1.182-0.103,1.74-0.28c0.758-0.241,1.484-0.579,2.298-0.603c0.321,0.006,0.597-0.147,0.884-0.254
			c0.508-0.227,0.89,0.138,0.998,0.46c0.138,0.414,0.352,0.375,0.629,0.357c0.243-0.015,0.459,0.033,0.646,0.19
			c0.139,0.027,0.245,0.089,0.258,0.249c0.293,0.002,0.586,0.005,0.881,0.008c0.033-0.023,0.064-0.053,0.103-0.066
			c0.327-0.116,0.319-0.692,0.71-0.621c0.324,0.059,0.584,0.358,0.869,0.557c0.068,0.046,0.143,0.082,0.211,0.127
			c0.125,0.001,0.25,0.002,0.375,0.002c0.296,0.216,0.59,0.208,0.884-0.003l0.001-0.001c0.271-0.162,0.48-0.451,0.875-0.338
			c0.342,0.098,0.593,0.234,0.669,0.619c0.08,0.406-0.306,0.361-0.536,0.548c0.548,0.282,1.22-0.066,1.637,0.447
			c0.012,0.196,0.095,0.316,0.313,0.285c0.309-0.045,0.559,0.127,0.832,0.214c0.252,0.039,0.458,0.361,0.754,0.121
			c0.004-0.25,0.008-0.499,0.012-0.748c0.054-0.041,0.088-0.042,0.115-0.032c-0.006-0.136-0.102-0.262-0.061-0.405l0,0
			c-0.086-0.086-0.092-0.252-0.19-0.325c-0.409-0.207-0.509-0.469-0.163-0.831c0.084-0.088,0.172-0.21,0.182-0.324
			c0.113-1.473,1.143-1.979,2.381-2.176c0.653-0.105,1.211-0.551,1.871-0.602c-0.082-0.193-0.037-0.431-0.016-0.648
			c0.037-0.411-0.038-0.587-0.512-0.497c-0.529,0.1-0.835-0.264-0.758-0.811c-0.023,0.027-0.047,0.045-0.079,0.067
			c-0.526,0.038-0.56-0.364-0.646-0.724c0.197-0.338,0.426-0.624,0.881-0.614c0.231,0.005,0.366-0.146,0.371-0.39
			c0.046-0.106,0.121-0.19,0.186-0.272c-0.584-0.099-1.21,0.027-1.706-0.397c-0.071-0.053-0.122-0.128-0.191-0.182
			c-0.46-0.36-0.38-0.802-0.195-1.265c0.077-0.193,0.19-0.312,0.415-0.313c0.54-0.004,0.563-0.325,0.428-0.727
			c-0.099-0.292-0.16-0.572-0.033-0.793c-0.217,0.223-0.328,0.496-0.182,0.884c0.129,0.343-0.039,0.492-0.347,0.552
			c-0.271,0.053-0.544-0.012-0.817,0.005c-0.688,0.043-0.749,0.101-0.843,0.817c-0.055,0.216-0.149,0.407-0.329,0.545
			c-0.669,0.117-1.096-0.367-1.43-0.761c-0.368-0.435-0.521-0.457-0.768,0.02c-0.139,0.268-0.356,0.39-0.654,0.415
			c-1.164,0.1-1.605,0.993-2.038,1.886c-0.087,0.178-0.005,0.368,0.038,0.552c0.204,0.86,0,1.177-0.852,1.448
			c-0.51,0.162-1.09,0.304-1.539,0.165c-0.604-0.189-1.281-0.289-1.797-0.728c-0.156-0.134-0.309-0.368-0.442,0.016
			c-0.158,0.288,0.181,0.742-0.309,0.918c-0.56,0.202-1.095,0.552-1.724,0.189c-0.422-0.242-0.875-0.264-1.328-0.081
			c-0.227,0.091-0.441,0.169-0.563-0.141c-0.914,0.18-1.742,0.604-2.583,0.968c-1.026,0.445-1.741,1.259-2.306,2.215
			c-0.403,0.685-0.999,1.173-1.707,1.522c-0.266,0.131-0.53,0.021-0.797-0.039c-0.207-0.045-0.389-0.028-0.285,0.291
			c0.335,1.03,0.133,1.52-0.867,2.157c-0.127-0.294,0.068-0.522,0.15-0.772c0.049-0.148,0.043-0.299-0.11-0.387
			c-0.128-0.074-0.244-0.001-0.349,0.071c-0.291,0.197-0.434,0.505-0.596,0.799c-0.123,0.226-0.264,0.46-0.569,0.405
			c-0.286-0.052-0.304-0.31-0.337-0.541c-0.302-0.06-0.605-0.119-0.873-0.171c-0.168-0.713,0.13-1.394,0.119-2.099
			c0.018-0.026,0.035-0.053,0.053-0.078c0.5,0.045,1.064-0.313,1.102-0.794c0.027-0.358,0.183-0.53,0.467-0.654
			c0.477-0.03,0.918-0.109,0.945-0.729c0.008-0.169,0.127-0.261,0.261-0.336c0.29-0.045,0.635,0.171,0.866-0.179
			c0.031-0.003,0.063-0.006,0.093-0.009c0.349-0.122,0.583-0.336,0.795-0.663c0.302-0.465,0.833-0.691,1.367-0.787
			c0.962-0.173,1.933-0.301,2.603-1.123c0.475-0.584,1.174-0.872,1.728-1.352c0.06-0.052,0.167-0.113,0.225-0.093
			c0.743,0.261,1.395-0.141,2.086-0.261c0.368-0.063,0.694-0.153,0.918-0.476c0.035-0.051,0.12-0.13,0.134-0.122
			c0.623,0.401,1.084-0.205,1.631-0.26c0.154-0.015,0.257,0.065,0.26,0.208c0.011,0.708,0.352,0.309,0.581,0.165
			c0.173-0.108,0.31-0.272,0.511-0.456c-0.319-0.182-0.604-0.346-0.891-0.507c-0.112-0.064-0.223-0.134-0.223-0.28
			c0-0.18,0.133-0.266,0.282-0.288c0.563-0.086,1.014-0.565,1.706-0.292c0.449,0.177,1.008-0.048,1.197-0.652
			c0.164-0.523,0.664-0.603,1.067-0.804c0.44-0.22,0.951-0.312,1.166-0.864c0.118-0.304,0.484-0.304,0.755-0.402
			c1.118-0.41,2.238-0.816,3.363-1.209c0.383-0.134,0.791-0.079,1.189-0.094c0.249-0.009,0.52,0.025,0.697-0.207
			c0.139-0.181,0.317-0.366,0.516-0.192c0.252,0.22,0.697,0.269,0.715,0.718c0.008,0.188-0.005,0.378-0.008,0.567
			c0.93,0.733,1.135,1.997,2.021,2.764c0.229,0.199,0.193,0.453,0.042,0.682c-0.103,0.154-0.241,0.284-0.368,0.421
			c-0.178,0.188-0.493,0.313-0.388,0.649c0.042,0.132,0.12,0.211,0.212,0.27c0.082-0.056,0.167-0.108,0.247-0.167
			c0.308-0.154,0.612-0.029,0.917,0.011c0.166,0.021,0.395,0.144,0.484,0.027c0.295-0.392,0.793-0.469,1.117-0.757
			c0.326-0.292,0.525-0.299,0.803-0.036c0.211,0.201,0.418,0.395,0.525,0.692c0.117,0.324,0.535,0.35,0.705,0.06
			c0.119-0.206,0.365-0.197,0.531-0.381c-0.074-0.279-0.502-0.392-0.422-0.768c0.049-0.243,0.24-0.387,0.359-0.582
			c0.166-0.277,0.441-0.291,0.719-0.293c0.317-0.002,0.616-0.055,0.883-0.197V0.767c28.826,0.35,52.165,23.889,52.165,52.79
			C106.362,82.456,83.023,105.995,54.204,106.346z"/>
	</g>
</g>
<g>
</g>
<g>
</g>
<g>
</g>
<g>
</g>
<g>
</g>
<g>
</g>
<g>
</g>
<g>
</g>
<g>
</g>
<g>
</g>
<g>
</g>
<g>
</g>
<g>
</g>
<g>
</g>
<g>
</g>
</svg>
