<?xml version="1.0" encoding="iso-8859-1"?>
<!-- Generator: Adobe Illustrator 16.0.0, SVG Export Plug-In . SVG Version: 6.00 Build 0)  -->
<!DOCTYPE svg PUBLIC "-//W3C//DTD SVG 1.1//EN" "http://www.w3.org/Graphics/SVG/1.1/DTD/svg11.dtd">
<svg version="1.1" id="Capa_1" xmlns="http://www.w3.org/2000/svg" xmlns:xlink="http://www.w3.org/1999/xlink" x="0px" y="0px"
	 width="107.112px" height="107.112px" viewBox="0 0 107.112 107.112" style="enable-background:new 0 0 107.112 107.112;"
	 xml:space="preserve">
<g>
	<path d="M83.154,36.719c0.078-0.176,0.117-0.318,0.131-0.443c-0.172-0.529-0.459-0.645-1.195-0.514
		c-0.105-0.062-0.211-0.127-0.316-0.191c0.074,0.369,0.139,0.745,0.207,1.117c0.229-0.228,0.508-0.385,0.834-0.412
		C83.111,36.251,83.074,36.538,83.154,36.719z"/>
	<path d="M81.941,36.717c-0.234,0.246-0.043,0.459,0.08,0.674c0.094,0.164,0.168,0.337,0.16,0.532
		c0.008,0.011,0.021,0.016,0.031,0.026c-0.072-0.425-0.154-0.842-0.232-1.263C81.969,36.699,81.952,36.704,81.941,36.717z"/>
	<path d="M53.556,0C24.025,0,0,24.025,0,53.557c0,29.531,24.025,53.556,53.556,53.556c29.53,0,53.556-24.024,53.556-53.556
		C107.112,24.025,83.086,0,53.556,0z M86.085,22.621c0.394,0.318,0.438,0.539-0.123,0.664c-0.088-0.084-0.174-0.168-0.262-0.251
		c-0.14-0.162-0.31-0.195-0.515-0.162c-0.258,0.042-0.346-0.108-0.317-0.337c0.026-0.248,0.188-0.317,0.408-0.246
		C85.553,22.379,85.844,22.424,86.085,22.621z M0.75,53.557C0.75,24.439,24.438,0.75,53.556,0.75c1.547,0,3.075,0.081,4.588,0.212
		c5.828,1.505,11,5.948,15.517,13.342c0.22-0.533,0.627-0.946,1.122-1.203c0.375-0.195,0.912,0.245,1.258,0.612
		c0.129,0.135,0.213,0.311,0.318,0.468c0.135-0.054,0.268-0.117,0.408-0.159c0.25-0.076,0.396-0.189,0.162-0.432
		c-0.105-0.109-0.238-0.208-0.146-0.369c0.103-0.169,0.293-0.142,0.457-0.122c0.121,0.014,0.248,0.055,0.353,0.117
		c0.385,0.227,0.709,0.541,1.227,0.523c0.189-0.006,0.539,0.128,0.484,0.572c-0.047,0.369,0.594,0.341,0.619,0.751l0.002,0.001
		c0.44-0.042,0.709,0.244,0.983,0.518c0.138,0.103,0.299,0.188,0.448,0.212c0.355,0.058,0.558,0.235,0.699,0.56
		c0.111,0.249,0.289,0.445,0.601,0.541c0.437,0.133,0.573,0.544,0.471,0.938c-0.104,0.401-0.004,0.676,0.244,0.968
		c0.613,0.72,0.541,2.103-0.155,2.732c-0.244,0.219-0.386,0.556-0.73,0.665c-0.064-0.012-0.129-0.004-0.193-0.008
		c-0.248,0.202-0.592,0.021-0.875,0.084c-0.016-0.013-0.031-0.018-0.047-0.03c-0.311,0.042-0.621,0.07-0.934,0.007
		c0.016,0.055,0.014,0.113-0.043,0.182c-0.086,0.105-0.236,0.146-0.34,0.079c-0.572-0.379-1.375-0.342-1.789-0.999l-0.002-0.001
		c-0.399-0.081-0.737-0.297-1.086-0.492c0.535,1.196,1.039,2.415,1.506,3.66c0.623,0.021,1.213,0.146,1.711,0.558
		c0.229,0.188,0.506,0.178,0.774,0.189c0.24,0.297,0.591,0.291,0.916,0.312c0.359,0.023,0.646,0.149,0.847,0.451
		c0.83,0.324,1.656,0.654,2.49,0.97c0.108,0.042,0.219,0.083,0.319,0.136c0.049-0.13,0.094-0.261,0.123-0.399
		c0.065-0.308,0.233-0.554,0.596-0.508c0.359,0.046,0.515-0.098,0.615-0.435c0.094-0.306,0.354-0.43,0.69-0.412
		c0.31,0.016,0.486,0.126,0.588,0.429c0.058,0.164,0.193,0.314,0.382,0.535c-0.537-0.671-0.726-1.406-1.027-2.078
		c-0.205-0.46-0.762-0.494-0.887-0.969c-0.123-0.467-0.048-1.015-0.459-1.374c-0.44-0.384-0.214-0.803-0.106-1.219
		c0.028-0.117,0.151-0.13,0.256-0.151c0.02,0.003,0.032,0.014,0.053,0.018c0.016-0.105-0.098-0.168-0.211-0.231v-0.655
		c0.646,0.533,1.256,0.965,1.772,1.486c0.394,0.394,0.894,0.622,1.291,0.992c0.354,0.327,0.134,0.398-0.174,0.451
		c0.004,0.125,0.01,0.25,0.017,0.374c-0.052,0.139-0.105,0.275-0.148,0.415c-0.098,0.314-0.244,0.438-0.523,0.16
		c-0.119-0.117-0.285-0.277-0.43-0.13c-0.156,0.158,0.041,0.307,0.145,0.422c0.248,0.275,0.717,0.46,0.34,0.958
		c-0.014,0.018,0.015,0.099,0.039,0.109c0.689,0.257,0.767,1.233,1.588,1.343c0.285,0.038,0.382,0.229,0.248,0.512
		c-0.106,0.229-0.096,0.475,0.104,0.637c0.229,0.187,0.242-0.128,0.36-0.203c0.087-0.053,0.177-0.041,0.22,0.041
		c0.119,0.222,0.285,0.485,0.099,0.703c-0.269,0.314-0.347,0.587-0.111,0.953c0.111,0.174,0.057,0.314-0.215,0.288
		c-0.424-0.042-0.438,0.307-0.504,0.587c-0.09,0.378,0.186,0.349,0.43,0.444c0.309,0.121,0.416,0.479,0.602,0.75
		c0.301,0.44,0.301,0.955,0.486,1.417c0.08,0.198,0.057,0.418-0.152,0.564c-0.443,0.31-0.549,0.778-0.561,1.273
		c-0.018,0.712-0.182,1.383,0.139,2.14c0.271,0.642,0.779,0.712,1.205,0.947c0.799,0.441,1.08,0.835,0.859,1.712
		c-0.086,0.341-0.09,0.64,0.01,0.974c0.145,0.485,0.41,0.963,0.127,1.5c-0.078,0.152,0.062,0.318,0.195,0.433
		c0.623,0.536,0.625,1.19,0.363,1.896c-0.029,0.054-0.07,0.095-0.127,0.121c-0.386-0.035-0.365-0.474-0.628-0.638
		c-0.094,0.09-0.114,0.224-0.049,0.287c0.813,0.756,0.731,1.739,0.533,2.648c-0.175,0.804-0.875,1.257-1.646,1.533
		c-0.242-0.029-0.312-0.204-0.298-0.401c0.043-0.582-0.327-0.868-0.764-1.118c-0.961-0.551-1.015-0.707-0.67-1.771
		c0.114-0.357,0.262-0.707,0.307-1.085c0.022-0.19,0.074-0.379,0.283-0.446c0.248-0.08,0.313,0.162,0.45,0.276
		c-0.002-0.011,0.011-0.017-0.006-0.029c-0.369-0.275-0.104-0.63-0.119-0.949c-0.004-0.086-0.012-0.171-0.016-0.257
		c0.164-0.303,0.176-0.609-0.088-0.849c-0.189-0.175-0.104-0.381-0.146-0.572c-0.002-0.024-0.01-0.04-0.012-0.062
		c-0.24-0.025-0.479-0.047-0.711-0.1c-0.166-0.038-0.309-0.108-0.414-0.216c-0.053,0.001-0.106,0.006-0.16,0.019
		c-0.049,0.03-0.1,0.049-0.151,0.068c-0.078-0.011-0.136,0.012-0.19,0.037c-0.05,0.233-0.062,0.473-0.054,0.717
		c-0.205-0.042-0.323-0.169-0.412-0.329c-0.034,0.019-0.063,0.046-0.104,0.051c-0.541-0.083-0.924,0-0.975,0.681
		c-0.027,0.369-0.326,0.503-0.628,0.212c-0.567-0.55-1.221-0.87-2.018-0.873c-0.171,0-0.244-0.146-0.337-0.259
		c-0.271-0.307-0.465-0.626-0.188-1.031c0.041-0.061,0.091-0.116,0.138-0.172c-0.047-0.097-0.095-0.193-0.154-0.279
		c-0.229-0.325-0.527-0.347-0.777-0.054c-0.197,0.233-0.24,0.744-0.637,0.598c-0.383-0.142-0.344-0.62-0.336-0.999
		c0.002-0.063,0.006-0.125,0.008-0.188c0.062-0.183,0.234-0.191,0.389-0.229c-0.01-0.007-0.022-0.005-0.031-0.013
		c-0.01-0.034-0.008-0.068-0.016-0.103c-0.394,0.159-0.91,0.054-1.205-0.272c0.271,1.61,0.498,3.252,0.682,4.927
		c0.035,0.02,0.074,0.033,0.107,0.059c0.025,0.035,0.031,0.076,0.039,0.117c0.037-0.021,0.074-0.039,0.113-0.057
		c0.135-0.133,0.34-0.162,0.5-0.256c0.184-0.019,0.402-0.048,0.408,0.217c0.006,0.281,0.121,0.5,0.291,0.698
		c0.16,0.186,0.096,0.374-0.031,0.499c-0.293,0.289-0.119,0.438,0.127,0.591c0.527,0.529,0.496,1.357,1.012,1.892
		c0.01,0.285,0.123,0.541,0.314,0.733c0.43,0.436,0.436,1.084,0.826,1.549c0.174,0.205-0.076,0.424-0.31,0.503
		c-0.26,0.088-0.528,0.089-0.797-0.005c-0.146-0.052-0.312-0.259-0.442-0.101c-0.15,0.178,0.063,0.333,0.162,0.484h-0.005
		c-0.26,0.197,0.023,0.573-0.252,0.765l-0.004-0.003c-0.174,0.153-0.387,0.231-0.575,0.083c-0.302-0.234-0.648-0.271-0.982-0.257
		c0.029,1.018,0.049,2.043,0.049,3.083c0,14.647-2.936,27.158-8.807,37.532c-5.051,8.923-10.961,13.998-17.726,15.244
		c-1.112,0.069-2.229,0.118-3.359,0.118C24.439,106.362,0.75,82.674,0.75,53.557z"/>
</g>
<g>
</g>
<g>
</g>
<g>
</g>
<g>
</g>
<g>
</g>
<g>
</g>
<g>
</g>
<g>
</g>
<g>
</g>
<g>
</g>
<g>
</g>
<g>
</g>
<g>
</g>
<g>
</g>
<g>
</g>
</svg>
