<?xml version="1.0" encoding="iso-8859-1"?>
<!-- Generator: Adobe Illustrator 16.0.0, SVG Export Plug-In . SVG Version: 6.00 Build 0)  -->
<!DOCTYPE svg PUBLIC "-//W3C//DTD SVG 1.1//EN" "http://www.w3.org/Graphics/SVG/1.1/DTD/svg11.dtd">
<svg version="1.1" id="Capa_1" xmlns="http://www.w3.org/2000/svg" xmlns:xlink="http://www.w3.org/1999/xlink" x="0px" y="0px"
	 width="107.112px" height="107.112px" viewBox="0 0 107.112 107.112" style="enable-background:new 0 0 107.112 107.112;"
	 xml:space="preserve">
<g>
	<g>
		<path d="M32.927,56.436c0.215-0.043,0.407,0.064,0.533,0.24c0.063,0.088,0.131,0.146,0.203,0.193
			c-0.058-0.059-0.113-0.131-0.162-0.242C33.395,56.385,33.141,56.316,32.927,56.436z"/>
		<path d="M33.34,52.604c0.173-0.408,0.426-0.784,0.483-1.237c0.395-0.186,0.786-0.357,1.016-0.783
			c0.053-0.099,0.145-0.153,0.241-0.192c-0.103,0.026-0.212,0.049-0.327,0.055c-0.334,0.017-0.476-0.277-0.669-0.464
			c-0.167-0.161-0.367-0.227-0.564-0.245c-0.25-0.022-0.395-0.141-0.45-0.353c-0.061-0.227,0.051-0.393,0.257-0.519
			c0.248-0.151,0.542-0.33,0.451-0.667c-0.043-0.16-0.244-0.277-0.121-0.487c-0.061,0.292-0.255,0.349-0.522,0.321
			c-0.148-0.016-0.243-0.104-0.343-0.186c-0.068,1.719-0.104,3.471-0.109,5.252c0.054-0.01,0.098-0.035,0.156-0.039
			C33.213,53.042,33.338,52.941,33.34,52.604z"/>
		<path d="M51.724,33.743c-0.244-0.061-0.448-0.162-0.604-0.358c0.262,0.2,0.229,0.379-0.021,0.586
			c-0.193,0.161-0.388,0.378-0.235,0.651c0.173,0.309,0.491,0.302,0.782,0.216c0.271-0.079,0.71-0.108,0.713-0.397
			C52.362,34.146,52.084,33.833,51.724,33.743z"/>
		<path d="M47.337,58.283c-0.004-0.021-0.006-0.044-0.008-0.064c-0.001,0.004-0.003,0.004-0.004,0.01
			C47.322,58.264,47.32,58.278,47.337,58.283z"/>
		<path d="M46.287,73.874c-0.051-0.021-0.104-0.034-0.154-0.051c-0.044,0.006-0.085,0.021-0.129,0.024
			c-0.146,0.024-0.281,0.072-0.405,0.152c0.004,0.041,0.014,0.08,0.016,0.123c0.007,0.203,0.11,0.367,0.298,0.443
			c0.276,0.109,0.619,0.369,0.821-0.025C46.926,74.165,46.597,73.988,46.287,73.874z"/>
		<path d="M34.033,56.96c-0.143,0.007-0.264-0.022-0.369-0.091C33.776,56.982,33.903,56.998,34.033,56.96z"/>
		<path d="M47.35,58.287c-0.009,0.001-0.008-0.004-0.013-0.005c0.003,0.017,0.001,0.036,0.006,0.052
			C47.331,58.379,47.434,58.282,47.35,58.287z"/>
		<path d="M44.492,34.422c0.036-0.052,0.067-0.099,0.058-0.11c-0.547-0.65,0.271-1.668-0.609-2.23
			c-0.291-0.185-0.157-0.292,0.093-0.423c0.221-0.116,0.748-0.007,0.63-0.31c-0.158-0.404-0.104-0.976-0.58-1.207
			c-0.382-0.184-0.795-0.634-1.184,0.103c-0.115,0.217-0.689,0.101-0.872,0.487c-0.06,0.575-0.422,0.974-0.767,1.382
			c0.012,0.02,0.027,0.032,0.037,0.054c0.091,0.302-0.043,0.582-0.107,0.86c-0.076,0.329-0.325,0.471-0.669,0.428
			c-0.674-0.083-0.948,0.227-0.78,0.896c0.044,0.179,0.163,0.345-0.001,0.518c0.315,0.12,0.605,0.136,0.771-0.35
			c0.185-0.141,0.392-0.21,0.625-0.193c0.579,0.273,0.053,0.522-0.017,0.781c-0.035,0.014-0.069,0.027-0.104,0.041
			c-0.245,0.068-0.392,0.19-0.491,0.339c0.074,0.281,0.058,0.583,0.051,0.881c0-0.002,0.001-0.003,0.002-0.005
			c0.11-0.535,0.532-0.813,1.062-0.742c0.41,0.055,0.658,0.498,0.603,1.058c-0.034,0.346-0.001,0.707-0.369,0.987
			c0.472,0.043,0.366-0.302,0.365-0.438c-0.006-0.451,0.079-0.859,0.356-1.212c0.14-0.178,0.128-0.325,0.028-0.515
			c-0.231-0.441-0.146-0.854,0.298-0.992C43.425,34.354,43.967,34.084,44.492,34.422z"/>
		<path d="M36.714,57.172c-0.05,0.024-0.1,0.039-0.149,0.051c0.02,0.002,0.037,0,0.057,0.004c0.328,0.045,0.697,0.119,0.939,0.324
			c0.327,0.277,0.638,0.323,0.984,0.203c-0.091-0.052-0.183-0.107-0.25-0.183C37.857,57.08,37.389,56.842,36.714,57.172z"/>
		<path d="M38.545,57.754c0.007,0.004,0.013,0.01,0.02,0.014c0.025,0.013,0.037,0.015,0.041-0.002
			c0.001-0.004,0.002-0.002,0.003-0.006c-0.01,0-0.021,0-0.042-0.013C38.559,57.75,38.552,57.75,38.545,57.754z"/>
		<path d="M44.375,62.244c-0.05-0.268-0.104-0.529-0.208-0.831c-0.143,0.578-1.08,0.785-0.809,1.364
			c0.21,0.447,0.063,1.104,0.604,1.395c0.105-0.328,0.448-0.475,0.679-0.617c0.229-0.145,0.542,0.319,0.911,0.349
			c0.203,0.016,0.107,0.267,0.082,0.428c-0.033,0.204-0.05,0.412-0.074,0.618c0.26,0.354,0.667,0.385,1.039,0.49
			c0.172-0.082,0.325-0.199,0.527-0.086c0.343,0.262,0.272,0.606,0.196,0.953c-0.011,0.028-0.021,0.055-0.032,0.082
			c0.009-0.021,0.021-0.037,0.029-0.059c0.186-0.168,0.32-0.012,0.469,0.062c0.203-0.517,0.318-1.065,0.55-1.571
			c-0.366-0.298-0.595-0.71-0.839-1.095c-0.288-0.451-0.683-0.603-1.162-0.621c-0.518-0.018-0.956-0.178-1.291-0.559
			C44.656,62.821,44.452,62.656,44.375,62.244z"/>
		<path d="M47.26,66.461c0.009-0.025,0.021-0.047,0.03-0.072c-0.011,0.025-0.026,0.047-0.039,0.071
			C47.255,66.46,47.257,66.461,47.26,66.461z"/>
		<path d="M32.728,56.545c0,0.026,0.001,0.053,0.001,0.078c0.002-0.003,0.005-0.004,0.007-0.008c0.055-0.081,0.121-0.141,0.191-0.18
			c-0.025,0.006-0.048,0.004-0.073,0.013C32.811,56.465,32.769,56.506,32.728,56.545z"/>
		<path d="M46.53,17.439c0.038-0.411-0.038-0.587-0.511-0.497c-0.53,0.1-0.835-0.264-0.759-0.811
			c-0.023,0.027-0.046,0.045-0.079,0.067c-0.527,0.038-0.559-0.364-0.646-0.724c0.198-0.338,0.426-0.624,0.881-0.614
			c0.231,0.005,0.366-0.146,0.371-0.39c0.046-0.106,0.122-0.19,0.186-0.272c-0.583-0.099-1.209,0.027-1.706-0.397
			c-0.071-0.053-0.122-0.128-0.191-0.182c-0.46-0.36-0.38-0.802-0.195-1.265c0.077-0.193,0.19-0.312,0.415-0.313
			c0.54-0.004,0.563-0.325,0.427-0.727c-0.098-0.292-0.16-0.572-0.032-0.793c-0.217,0.223-0.328,0.496-0.182,0.884
			c0.129,0.343-0.039,0.492-0.347,0.552c-0.271,0.053-0.544-0.012-0.817,0.005c-0.687,0.043-0.749,0.101-0.843,0.817
			c-0.055,0.216-0.149,0.407-0.329,0.545c-0.669,0.117-1.095-0.367-1.429-0.761c-0.063-0.074-0.113-0.12-0.165-0.169
			c-0.551,1.139-1.089,2.359-1.615,3.662c-0.725,1.796-1.364,3.678-1.963,5.601c0.286,0.195,0.571,0.186,0.855-0.019l0.001-0.001
			c0.271-0.162,0.48-0.451,0.875-0.338c0.341,0.098,0.593,0.234,0.669,0.619c0.08,0.406-0.305,0.361-0.536,0.548
			c0.547,0.282,1.219-0.066,1.636,0.447c0.012,0.196,0.095,0.316,0.313,0.285c0.308-0.045,0.559,0.127,0.832,0.214
			c0.252,0.039,0.458,0.361,0.755,0.121c0.004-0.25,0.008-0.499,0.012-0.748c0.053-0.041,0.087-0.042,0.115-0.032
			c-0.007-0.136-0.102-0.262-0.062-0.405l0,0c-0.085-0.086-0.092-0.252-0.19-0.325c-0.41-0.207-0.508-0.469-0.163-0.831
			c0.083-0.088,0.172-0.21,0.181-0.324c0.114-1.473,1.143-1.979,2.382-2.176c0.653-0.104,1.211-0.551,1.87-0.602
			C46.464,17.894,46.51,17.657,46.53,17.439z"/>
		<path d="M44.691,10.521c0.098-0.101,0.211-0.195,0.343-0.278C44.859,10.317,44.754,10.412,44.691,10.521z"/>
		<path d="M34.336,56.791c-0.099,0.088-0.202,0.139-0.304,0.169c0.033-0.002,0.063,0.001,0.099-0.004
			c0.387-0.052,0.625,0.162,0.756,0.521c0.122,0.332,0.175,0.697,0.434,0.967c-0.097-0.689,0.269-1.161,0.911-1.223
			c-0.281-0.067-0.538-0.276-0.776-0.424C35.046,56.541,34.741,56.438,34.336,56.791z"/>
		<path d="M55.195,30.406c-0.105,0.056-0.281,0.173-0.426,0.082c-0.002,0.002-0.006,0.004-0.008,0.007
			c-0.039,0.019-0.08,0.024-0.119,0.031c-0.025,0.345-0.021,0.67,0.463,0.801c0.143,0.038,0.371,0.209,0.424,0.133
			c0.254-0.366,0.736-0.207,1.008-0.486c0.092-0.095,0.061-0.214-0.055-0.252C56.064,30.583,55.734,30.128,55.195,30.406z"/>
		<path d="M35.08,50.392c0.131-0.033,0.25-0.072,0.339-0.105C35.335,50.32,35.203,50.342,35.08,50.392z"/>
		<path d="M53.556,0C24.025,0,0,24.025,0,53.557c0,29.531,24.025,53.556,53.556,53.556s53.556-24.024,53.556-53.556
			C107.112,24.025,83.087,0,53.556,0z M85.277,22.288c0.275,0.09,0.566,0.136,0.809,0.333c0.393,0.318,0.439,0.539-0.123,0.664
			c-0.088-0.084-0.174-0.168-0.262-0.251c-0.139-0.162-0.309-0.195-0.514-0.162c-0.258,0.042-0.346-0.108-0.318-0.337
			C84.896,22.287,85.059,22.217,85.277,22.288z M73.281,15.431c0.221-0.101,0.195-0.289,0.215-0.479
			c0.08-0.856,0.605-1.498,1.287-1.851c0.375-0.195,0.912,0.245,1.258,0.612c0.129,0.135,0.213,0.311,0.318,0.468
			c0.135-0.054,0.268-0.117,0.408-0.159c0.25-0.076,0.396-0.189,0.162-0.432c-0.105-0.109-0.238-0.208-0.146-0.369
			c0.103-0.169,0.293-0.142,0.457-0.122c0.121,0.014,0.248,0.055,0.353,0.117c0.385,0.227,0.709,0.541,1.227,0.523
			c0.189-0.006,0.539,0.128,0.484,0.572c-0.047,0.369,0.594,0.341,0.619,0.751l0.002,0.001c0.44-0.042,0.709,0.244,0.983,0.518
			c0.138,0.103,0.299,0.188,0.448,0.212c0.355,0.058,0.558,0.235,0.699,0.56c0.111,0.249,0.289,0.445,0.601,0.541
			c0.437,0.133,0.573,0.544,0.471,0.938c-0.104,0.401-0.004,0.676,0.244,0.968c0.613,0.72,0.541,2.103-0.155,2.732
			c-0.244,0.219-0.386,0.556-0.73,0.665c-0.064-0.012-0.129-0.004-0.193-0.008c-0.248,0.202-0.592,0.021-0.875,0.084
			c-0.016-0.013-0.031-0.018-0.047-0.03c-0.311,0.042-0.621,0.07-0.934,0.007c0.016,0.055,0.014,0.113-0.043,0.182
			c-0.086,0.105-0.236,0.146-0.34,0.079c-0.572-0.379-1.375-0.342-1.789-0.999l-0.002-0.001c-0.605-0.123-1.068-0.562-1.644-0.754
			c-0.039-0.003-0.078-0.005-0.117-0.008c-0.254-0.115-0.471-0.3-0.741-0.391c-0.129-0.042-0.271-0.211-0.183-0.331
			c0.511-0.668-0.149-0.769-0.478-1.035c-0.041-0.001-0.08-0.004-0.121-0.008c-0.067-0.167-0.131-0.334,0.003-0.501
			c-0.003-0.041-0.007-0.082-0.007-0.122c0,0,0,0-0.002,0c-0.51,0.204-0.575-0.357-0.879-0.509
			c-0.574-0.506-1.133-1.011-1.057-1.894C73.061,15.73,73.055,15.535,73.281,15.431z M67.615,16.118
			c0.109-0.3,0.393-0.285,0.645-0.217c0.324,0.087,0.512,0.286,0.457,0.472c-0.162,0.604,0.26,0.796,0.361,1.131
			c0.057,0.192,0.266,0.368,0.072,0.572c-0.18,0.188-0.344,0.045-0.496-0.072c-0.168-0.129-0.383-0.009-0.549-0.091
			c-0.23-0.114-0.771-0.126-0.238-0.574c0.215-0.182,0.061-0.314-0.102-0.377C67.249,16.755,67.512,16.406,67.615,16.118z
			 M94.044,44.114c-0.385-0.035-0.364-0.474-0.627-0.638c-0.094,0.09-0.114,0.224-0.049,0.287c0.813,0.756,0.731,1.739,0.533,2.648
			c-0.175,0.804-0.875,1.257-1.646,1.533c-0.242-0.029-0.312-0.204-0.298-0.401c0.043-0.582-0.327-0.868-0.764-1.118
			c-0.962-0.551-1.015-0.707-0.671-1.771c0.115-0.357,0.263-0.707,0.308-1.085c0.022-0.19,0.074-0.379,0.283-0.446
			c0.248-0.08,0.313,0.162,0.45,0.276c-0.002-0.011,0.011-0.017-0.006-0.029c-0.369-0.275-0.104-0.63-0.119-0.949
			c-0.004-0.086-0.012-0.171-0.016-0.257c0.164-0.303,0.176-0.609-0.088-0.849c-0.189-0.175-0.104-0.381-0.146-0.572
			c-0.002-0.024-0.01-0.04-0.012-0.062c-0.24-0.025-0.479-0.047-0.711-0.1c-0.166-0.038-0.309-0.108-0.414-0.216
			c-0.053,0.001-0.106,0.006-0.16,0.019c-0.049,0.03-0.1,0.049-0.151,0.068c-0.078-0.011-0.136,0.012-0.19,0.037
			c-0.05,0.233-0.062,0.473-0.054,0.717c-0.205-0.042-0.323-0.169-0.412-0.329c-0.034,0.019-0.063,0.046-0.104,0.051
			c-0.541-0.083-0.924,0-0.975,0.681c-0.027,0.369-0.326,0.503-0.628,0.212c-0.567-0.55-1.221-0.87-2.018-0.873
			c-0.171,0-0.244-0.146-0.337-0.259c-0.271-0.307-0.465-0.626-0.188-1.031c0.041-0.061,0.091-0.116,0.138-0.172
			c-0.047-0.097-0.095-0.193-0.154-0.279c-0.229-0.325-0.527-0.347-0.777-0.054c-0.197,0.233-0.24,0.744-0.637,0.598
			c-0.383-0.142-0.344-0.62-0.336-0.999c0.002-0.063,0.006-0.125,0.008-0.187c0.062-0.183,0.234-0.191,0.389-0.23
			c-0.01-0.007-0.023-0.005-0.031-0.013c-0.01-0.034-0.008-0.068-0.016-0.103c-0.406,0.164-0.947,0.052-1.236-0.299
			c0.008-0.195-0.065-0.368-0.16-0.532c-0.123-0.215-0.313-0.428-0.08-0.674c0.234-0.248,0.529-0.414,0.873-0.442
			c0.298-0.024,0.261,0.263,0.341,0.444c0.077-0.176,0.116-0.318,0.131-0.443c-0.172-0.529-0.459-0.645-1.194-0.514
			c-0.468-0.27-0.89-0.607-1.482-0.615c-0.398-0.005-0.346-0.387-0.389-0.672c-0.097-0.655-0.185-1.313-0.343-1.958
			c-0.006,0.207-0.018,0.413-0.053,0.617c-0.035,0.192-0.021,0.398-0.302,0.479c-0.268,0.077-0.381-0.052-0.514-0.214
			c-0.031-0.09-0.057-0.183-0.094-0.266c-0.236,0-0.475-0.002-0.713,0.005c-0.123,0.004-0.326,0.011-0.354,0.075
			c-0.187,0.44-0.392,0.521-0.756,0.159c-0.154-0.153-0.244,0.077-0.314,0.188c-0.217,0.343-0.426,0.524-0.736,0.079
			c-0.123-0.176-0.348-0.226-0.559-0.262c-0.041-0.003-0.082-0.005-0.123-0.005c-0.359,0.34-0.773,0.487-1.266,0.376
			c-0.654-0.089-0.588,0.377-0.359,0.636c0.445,0.51,0.031,1.214,0.482,1.685c0.01,0.011,0.006,0.047-0.004,0.061
			c-0.761,1.025,0.309,1.776,0.397,2.673c0.12,0.044,0.241,0.089,0.362,0.134c0.388,0.225,0.627,0.543,0.66,1.007
			c0.008,0.121,0.043,0.281,0.125,0.348c0.764,0.617,0.631,1.637,1.09,2.389c0.103,0.166,0.086,0.478,0.396,0.346
			c0.233-0.1,0.155-0.308,0.041-0.479c-0.076-0.116-0.117-0.235,0.019-0.33c0.147-0.104,0.244,0.036,0.313,0.119
			c0.629,0.736,1.319,0.679,2.16,0.339c0.403-0.164,0.901-0.594,1.428-0.142c0.082,0.07,0.185-0.048,0.256-0.128
			c0.113-0.125,0.052-0.467,0.314-0.375c0.223,0.077,0.125,0.368,0.145,0.568c0,0.012,0,0.024,0,0.036c0.039,0,0.078,0,0.117-0.001
			c0.317,0.109,0.681,0.084,0.963,0.299c0.024,0.035,0.031,0.076,0.039,0.117c0.037-0.021,0.074-0.039,0.113-0.057
			c0.135-0.133,0.34-0.162,0.5-0.256c0.184-0.019,0.401-0.048,0.407,0.217c0.006,0.281,0.121,0.5,0.291,0.698
			c0.16,0.186,0.097,0.374-0.03,0.499c-0.293,0.289-0.119,0.438,0.127,0.591c0.526,0.529,0.496,1.357,1.012,1.892
			c0.011,0.285,0.123,0.541,0.313,0.733c0.431,0.436,0.437,1.084,0.826,1.549c0.174,0.205-0.076,0.424-0.309,0.503
			c-0.26,0.088-0.529,0.089-0.797-0.005c-0.146-0.052-0.311-0.259-0.443-0.101c-0.15,0.178,0.064,0.333,0.162,0.484h-0.004
			c-0.26,0.197,0.023,0.573-0.252,0.765l-0.001,0.001c-0.174,0.153-0.387,0.231-0.575,0.083c-0.365-0.285-0.802-0.282-1.197-0.245
			c-0.609,0.056-1.088-0.356-1.666-0.356c-0.068,0-0.127-0.05-0.154-0.095c-0.404-0.658-1.09-0.989-1.646-1.468
			c-0.336-0.289-0.518-0.801-0.371-1.395c0.189-0.759,0.342-1.541,0.396-2.328c-0.056-0.062-0.104-0.129-0.181-0.168
			c-0.178-0.137-0.387-0.148-0.598-0.157c-0.139-0.006-0.246-0.053-0.342-0.113c-0.131-0.043-0.262-0.098-0.395-0.166
			c-0.635-0.326-0.814-0.188-0.851,0.522c-0.008,0.146-0.008,0.295-0.028,0.44c-0.037,0.271-0.174,0.501-0.445,0.55
			c-0.287,0.051-0.389-0.216-0.473-0.423c-0.244-0.596-0.652-0.959-1.31-1.036c-0.138-0.017-0.287-0.089-0.396-0.18
			c-0.375-0.316-0.692-0.059-0.723,0.224c-0.064,0.619-0.83,0.429-0.955,0.947c-0.02,0.087-0.227-0.07-0.201-0.199
			c0.072-0.377-0.061-0.651-0.354-0.878c-0.057-0.044-0.111-0.16-0.092-0.217c0.232-0.708-0.438-0.579-0.73-0.757
			c-0.346-0.21-0.691-0.136-0.898,0.308c-0.139-0.269-0.059-0.501-0.086-0.724c-0.256-0.248-0.082-0.52,0.021-0.734
			c0.08-0.172,0.125-0.273-0.019-0.405c-0.004-0.042-0.006-0.083-0.01-0.123c0.402-0.206,0.851-0.005,1.26-0.135
			c0.002-0.038,0.005-0.075,0.005-0.112c-0.355-0.182-0.574-0.523-0.882-0.762c-0.039-0.003-0.078-0.006-0.116-0.008
			c-0.285-0.271-0.521-0.583-0.731-0.912c0,0.217-0.248,0.327-0.48,0.412c-0.369,0.133-0.73,0.213-1.029,0.525
			c-0.223,0.234-0.551,0.076-0.807-0.08c-0.615-0.379-0.965-0.328-1.506,0.18c-0.176,0.166-0.332,0.399-0.629,0.386
			c-0.871,0.042-0.871,0.042-0.867-0.792c0-0.172-0.104-0.454-0.223-0.322c-0.423,0.462-0.595-0.024-0.855-0.155
			c-0.148-0.075-0.287-0.169-0.43-0.255c-0.316,0.021-0.666-0.074-0.896,0.252c-0.381,0.641-0.379,0.639-0.854,0.006
			c-0.072-0.096-0.166-0.2-0.273-0.242c-0.42-0.164-0.469-0.385-0.146-0.694c0.15-0.144,0.287-0.383,0.053-0.462
			c-0.768-0.26-0.778-1.3-1.647-1.486c-0.373-0.08-0.041-0.496,0.024-0.753c-0.717-0.014-1.364-0.301-2.057-0.198
			c-0.197,0.029-0.271-0.135-0.289-0.333c-0.045-0.505,0.389-0.715,0.644-1.022c0.092-0.113,0.317,0.038,0.356,0.23
			c0.043,0.21,0.152,0.235,0.314,0.15c0.092-0.047,0.221-0.099,0.244-0.175c0.059-0.192-0.139-0.216-0.252-0.301
			c-0.322-0.245-0.807-0.346-0.912-0.792c-0.02-0.008-0.039-0.015-0.057-0.022c-0.058-0.008-0.113-0.014-0.172-0.02
			c-0.099-0.077-0.17-0.157-0.228-0.24c-0.063-0.027-0.119-0.07-0.146-0.163c-0.063-0.225,0.086-0.387,0.246-0.525
			c0.043-0.037,0.088-0.073,0.131-0.11c0.029-0.096,0.053-0.194,0.076-0.292c-0.549,0.246-0.934,0.664-1.176,1.239
			c-0.053,0.125-0.188,0.195-0.328,0.124c0.193,0.156,0.383,0.342,0.586,0.511c0.096,0.08,0.195,0.169,0.248,0.283
			c0.08,0.168,0.305,0.446,0.119,0.514c-0.623,0.228-0.148,1.218-0.908,1.257c-0.43,0.022-0.541,0.173-0.383,0.541
			c0.117,0.273,0.053,0.553,0.064,0.829c0.062,0,0.127,0.013,0.186,0.049c0.348,0.216,0.709,0.458,0.734,0.933
			c0.023,0.429-0.146,0.706-0.578,0.884c-0.699,0.29-1.072,0.885-1.26,1.603c-0.014,0.004-0.025,0.001-0.039,0.002
			c0.34,0.806-0.504,1.961-1.375,1.758c-0.229-0.053-0.459-0.034-0.689-0.003c-0.81,0.11-1.097,0.798-0.605,1.461
			c0.22,0.297,0.527,0.461,0.869,0.596c0.646,0.255,0.701,0.467,0.324,1.047c-0.211,0.326-0.092,0.587,0.311,0.763
			c0.193,0.084,0.408,0.139,0.531,0.37c0.062,0.111,0.176,0.228,0.076,0.305c-0.277,0.215-0.551,0.42-0.799,0.678
			c-0.15,0.158-0.369,0.042-0.566-0.031c0,0.004,0,0.008,0,0.012c0.006,0.077-0.006,0.151-0.006,0.227
			c0.129,0.333,0.295,0.29,1.006,0.093c0.063,0.157,0.207,0.234,0.328,0.331c0.34,0.269,0.32,0.583-0.072,1.054
			c-0.196,0.108-0.452,0.13-0.583,0.34c-0.105,0.168-0.412,0.226-0.33,0.482c0.076,0.236,0.367-0.104,0.525,0.235
			c-0.467,0.081-0.887,0.291-1.356,0.323c-0.084,0.09-0.178,0.177-0.268,0.251c-0.396,0.033-0.813,0.349-1.19-0.059
			c-0.005-0.07,0.001-0.136,0.003-0.203c-0.396-0.073-0.795,0.013-1.192,0.022c-0.039,0.078-0.079,0.156-0.127,0.25
			c-0.346,0.096-0.681,0.209-0.884,0.539c-0.033,0.055-0.079,0.131-0.126,0.133c-0.779,0.049-1.512,0.615-2.325,0.274
			c-0.001,0.003-0.003,0.006-0.004,0.009c0.012,0.029,0.026,0.06,0.036,0.085c0.19,0.478,0.54,0.617,0.997,0.544
			c0.652-0.103,1.067,0.128,1.221,0.784c0.123,0.404,0.037,0.724-0.332,0.98c-0.442,0.309-0.776,0.809-1.423,0.707
			c-0.22-0.035-0.233,0.143-0.244,0.301c0,0.26-0.231,0.334-0.382,0.473c-0.27,0.103-0.384,0.35-0.512,0.572
			c-0.268,0.469-0.233,0.537,0.298,0.59c0.398,0.041,0.744,0.252,1.14,0.314c0.317,0.051,0.22,0.348,0.243,0.598
			c0.039-0.293,0.279-0.246,0.469-0.27c0.609-0.072,1.211,0.09,1.821,0.047c0.185-0.013,0.356,0.092,0.347,0.285
			c-0.042,0.854,0.633,1.139,1.193,1.453c1.048,0.59,1.064,0.559,1.288,1.672c0.283-0.344,0.291-0.805,0.646-1.081
			c0.453-0.353,0.605-0.349,0.801,0.179c0.068,0.188,0.286,0.328,0.202,0.57c-0.004,0.09-0.002,0.18-0.023,0.268
			c-0.01,0.006-0.016,0.017-0.025,0.021c0.518,0.216,0.834,0.58,1.078,1.164c0.396,0.943,0.354,1.794,0.006,2.689
			c-0.113,0.289-0.188,0.627-0.547,0.627c0,0.002,0.002,0.004,0.002,0.006c-0.01,0.096-0.006,0.187-0.01,0.279
			c0.143,0.37,0.129,0.821,0.533,1.061c0.197,0.115,0.369,0.271,0.553,0.408c0.693,0.022,1.27,0.234,1.59,0.916
			c0.145,0.304,0.408,0.438,0.752,0.488c0.41,0.061,0.834,0.117,1.191,0.367c-0.1,0.826-0.072,1.072,0.293,1.973
			c0.148,0.367,0.225,0.713-0.037,1.057c0,0.025-0.002,0.054-0.002,0.08c0.041-0.004,0.08-0.014,0.121,0.002
			c0.311,0.543,0.25,0.98-0.34,1.455c-0.406,0.328-0.732,0.752-1.209,0.998c-0.297,0.152-0.34,0.33-0.144,0.652
			c0.166,0.273,0.636,0.625,0.056,0.979c-0.123,0.111-0.269,0.209-0.367,0.339c-0.361,0.461-0.797,0.633-1.381,0.476
			c-0.551-0.146-1.074-0.074-1.525,0.325c-0.254,0.226-0.418,0.42,0.064,0.537c0.174,0.041,0.354,0.063,0.303,0.299
			c-0.045,0.19-0.217,0.265-0.391,0.248c-0.205-0.021-0.406-0.088-0.609-0.135c-0.313-0.072-0.621-0.052-0.76,0.269
			c-0.215,0.495-0.611,0.475-1.001,0.377c-0.511-0.129-1.016-0.265-1.546-0.185c-0.307,0.047-0.439-0.33-0.739-0.276
			c-0.24-0.025-0.465-0.135-0.695-0.213c0.024,0.01,0.052,0.018,0.075,0.03c0.2,0.103,0.42,0.176,0.604,0.313
			c0.145,0.231,0.233,0.492,0.314,0.754c0.009,0.176,0.077,0.303,0.27,0.342c0.169,0.033,0.228,0.148,0.213,0.316
			c-0.018,0.186-0.147,0.237-0.295,0.271c-0.203,0.047-0.399,0.123-0.601,0.172c-0.309,0.073-0.523,0.181-0.529,0.56
			c-0.004,0.229-0.194,0.401-0.363,0.563c-0.147,0.142-0.356,0.303-0.224,0.524c0.12,0.201,0.337,0.07,0.516,0.033
			c0.489-0.102,1.003-0.148,1.243-0.699c0.034-0.08,0.147-0.059,0.23-0.059c0.548-0.092,0.881,0.17,1.049,0.666
			c0.207,0.607-0.052,0.938-0.708,0.986c-0.613,0.045-1.157,0.346-1.722,0.559c-0.253,0.096-0.313,0.42-0.167,0.592
			c0.639,0.752,0.313,1.424-0.102,2.105c-0.084,0.082-0.168,0.166-0.251,0.248c-0.293-0.287-0.628-0.484-1.051-0.498
			c-0.741-0.023-0.962-0.713-1.395-1.121c-0.15-0.141,0.1-0.225,0.226-0.27c0.359-0.125,0.368-0.351,0.2-0.637
			c-0.248-0.423-0.41-0.869-0.382-1.369c-0.39-0.093-0.641-0.211-0.231-0.625c0.23-0.232,0.509-0.494,0.141-0.877
			c-0.176-0.185-0.12-0.455,0.107-0.593c0.15-0.091,0.285-0.208,0.43-0.308c-0.354,0-0.677-0.053-0.853-0.551
			c-0.107-0.307-0.541-0.276-0.85-0.162c-0.227,0.086-0.531,0.179-0.507,0.484c0.025,0.344,0.262,0.57,0.61,0.627
			c0.198,0.033,0.348,0.133,0.501,0.246c0.328,0.24,0.302,0.477-0.077,0.568c-0.363,0.088-0.619,0.219-0.687,0.607
			c0,0.002-0.039,0.002-0.055-0.006c-0.018-0.009-0.029-0.029-0.044-0.043c-0.822,0.036-0.854,0.073-0.877,1.004
			c0.001,0.041,0.002,0.082,0.004,0.123c0.267-0.056,0.504,0.063,0.75,0.129c0.392,0.896,0.334,0.975-0.753,1.012
			c0.001,0.123,0.003,0.248,0.005,0.371c0.476,0.084,0.855,0.125,0.708,0.856c-0.101,0.498,0.084,1.138,0.701,1.425
			c0.178,0.082,0.368,0.2,0.268,0.422c-0.1,0.223-0.25-0.056-0.374-0.019c-0.694,0.213-1.417-0.174-2.122,0.153
			c-0.462,0.217-1.24,0.041-1.637-0.25c-0.006-0.004-0.014-0.008-0.02-0.014c-0.073-0.056-0.137-0.113-0.176-0.176
			c-0.002-0.039-0.004-0.078-0.007-0.119c-0.042,0.094-0.117,0.184-0.122,0.279c-0.052,1.096-0.268,1.277-1.396,1.148
			c-0.082-0.01-0.163-0.027-0.244-0.043c-0.152-0.498-0.502-0.73-1.01-0.754c-0.399-0.029-0.771-0.119-1.003-0.486
			c0.424,1.24,0.868,2.462,1.347,3.646c3.589,8.875,7.77,13.938,12.541,15.221C23.336,105.227,0.75,81.985,0.75,53.557
			c0-28.423,22.575-51.661,50.735-52.753c-3.14,0.856-6.023,3.36-8.651,7.511c0.345-0.084,0.707-0.049,1.061-0.063
			c0.249-0.009,0.519,0.025,0.697-0.207c0.139-0.181,0.318-0.366,0.517-0.192c0.251,0.22,0.697,0.269,0.715,0.718
			c0.007,0.188-0.005,0.378-0.009,0.567c0.93,0.733,1.135,1.997,2.021,2.764c0.229,0.199,0.194,0.453,0.042,0.682
			c-0.103,0.154-0.241,0.284-0.368,0.421c-0.178,0.189-0.493,0.314-0.388,0.649c0.042,0.132,0.12,0.211,0.212,0.27
			c0.082-0.056,0.167-0.108,0.247-0.167c0.307-0.154,0.612-0.029,0.917,0.011c0.165,0.021,0.395,0.144,0.483,0.027
			c0.296-0.392,0.793-0.469,1.117-0.757c0.326-0.292,0.526-0.299,0.804-0.036c0.211,0.201,0.417,0.395,0.525,0.692
			c0.117,0.324,0.535,0.35,0.704,0.06c0.119-0.206,0.365-0.197,0.532-0.381c-0.074-0.279-0.501-0.392-0.422-0.768
			c0.05-0.243,0.241-0.387,0.36-0.582c0.166-0.277,0.441-0.291,0.719-0.293c0.455-0.003,0.875-0.099,1.211-0.434
			c0.656-0.145,1.018,0.357,1.391,0.714c0.717,0.684,1.438,1.058,2.439,0.604c0.373-0.169,0.732,0.125,1.008,0.381
			c0.193,0.178,0.148,0.371-0.129,0.478c-0.359,0.14-0.709,0.261-1.098,0.097c-0.146-0.062-0.305-0.168-0.48-0.022
			c0.074,0.271,0.344,0.349,0.514,0.521c-0.082,0.125-0.162,0.25-0.244,0.375c-0.315,0.082-0.664,0.215-0.549,0.598
			c0.098,0.326,0.479,0.25,0.762,0.247c0.185-0.002,0.384-0.242,0.545,0.04c-0.594,0.091-1.149,0.354-1.774,0.32
			c-0.282-0.015-0.539-0.045-0.771-0.207c-0.229-0.161-0.438-0.181-0.692-0.017c-0.403,0.257-0.918,0.101-1.147-0.313
			c-0.063-0.109-0.092-0.239-0.166-0.336c-0.131-0.17-0.32-0.185-0.517-0.119c-0.105,0.036-0.197,0.111-0.178,0.228
			c0.057,0.317,0.342,0.003,0.49,0.2c-0.393,0.437-0.297,0.79,0.253,1.038c0.224,0.101,0.328,0.258,0.328,0.543
			c0,0.685,0.258,0.919,0.957,0.93c0.693,0.011,1.39-0.026,2.08,0.005c0.354,0.016,0.779,0.001,0.717,0.616
			c-0.012,0.106,0.466,0.303,0.736,0.389c0.324,0.102,0.656,0.182,0.978,0.303c0.059-0.052,0.129-0.095,0.227-0.105
			c0.181-0.002,0.359-0.023,0.529,0.054c0.369,0.09,0.606,0.431,0.978,0.52c0.137,0.122,0.344,0.222,0.436,0.047
			c0.316-0.602,0.779-0.303,1.199-0.236c0.354,0.058,0.692,0.303,0.869-0.317c0.09-0.32,0.535-0.243,0.812-0.065
			c0.168,0.108,0.291,0.252,0.477,0.053c0.631,0,1.232,0.063,1.512,0.761c0.056,0.114,0.107,0.229,0.166,0.341
			c0.132,0.25,0.191,0.665,0.566,0.55c0.416-0.127,1.043,0.047,1.164-0.639V19.87c0.592,0.152,1.125,0.517,1.764,0.511
			c-0.063,0.108-0.106,0.237-0.194,0.319c-0.224,0.207-0.556,0.354-0.367,0.751c0.19,0.412,0.519,0.643,0.976,0.683
			c0.25,0.021,0.51,0.01,0.748,0.076c0.422,0.118,0.864,0.253,1.008,0.748c0.188,0.649,0.621,0.844,1.248,0.706
			c0.41-0.134,0.799-0.181,1.178,0.128c0.182,0.149,0.443,0.113,0.672,0.066c0.736-0.153,1.346,0.063,1.768,0.673
			c0.285,0.412,0.563,0.433,0.926,0.145c0.64,0.017,1.244,0.14,1.754,0.561c0.23,0.188,0.507,0.178,0.775,0.189
			c0.24,0.297,0.59,0.291,0.916,0.312c0.359,0.023,0.646,0.149,0.846,0.451c0.83,0.324,1.656,0.654,2.49,0.97
			c0.109,0.042,0.219,0.083,0.32,0.136c0.049-0.13,0.094-0.261,0.123-0.399c0.066-0.308,0.234-0.554,0.596-0.508
			c0.359,0.046,0.514-0.098,0.615-0.435c0.094-0.306,0.354-0.43,0.691-0.412c0.309,0.016,0.486,0.126,0.588,0.429
			c0.057,0.164,0.193,0.314,0.381,0.535c-0.537-0.671-0.725-1.406-1.027-2.078c-0.205-0.46-0.762-0.494-0.887-0.969
			c-0.123-0.467-0.047-1.015-0.459-1.374c-0.441-0.384-0.213-0.803-0.107-1.219c0.029-0.117,0.152-0.13,0.256-0.151
			c0.021,0.003,0.033,0.014,0.054,0.018c0.016-0.105-0.099-0.168-0.212-0.231v-0.655c0.646,0.533,1.257,0.965,1.773,1.486
			c0.393,0.394,0.893,0.622,1.291,0.992c0.354,0.327,0.133,0.398-0.174,0.451c0.004,0.125,0.01,0.25,0.016,0.374
			c-0.051,0.139-0.104,0.275-0.147,0.415c-0.099,0.314-0.244,0.438-0.522,0.16c-0.119-0.117-0.285-0.277-0.431-0.13
			c-0.155,0.158,0.041,0.307,0.146,0.422c0.248,0.275,0.717,0.46,0.34,0.958c-0.014,0.018,0.014,0.099,0.039,0.109
			c0.688,0.257,0.766,1.233,1.588,1.343c0.285,0.038,0.381,0.229,0.248,0.512c-0.107,0.229-0.096,0.475,0.104,0.637
			c0.23,0.187,0.242-0.128,0.361-0.203c0.086-0.053,0.176-0.041,0.219,0.041c0.119,0.222,0.285,0.485,0.098,0.703
			c-0.268,0.314-0.346,0.587-0.111,0.953c0.111,0.174,0.058,0.314-0.215,0.288c-0.424-0.042-0.438,0.307-0.504,0.587
			c-0.09,0.378,0.187,0.349,0.431,0.444c0.309,0.121,0.416,0.479,0.603,0.75c0.301,0.44,0.301,0.955,0.485,1.417
			c0.08,0.198,0.058,0.418-0.151,0.564c-0.443,0.31-0.55,0.778-0.562,1.273c-0.019,0.712-0.183,1.383,0.139,2.14
			c0.271,0.642,0.779,0.712,1.205,0.947c0.8,0.441,1.08,0.835,0.858,1.712c-0.086,0.341-0.09,0.64,0.011,0.974
			c0.146,0.485,0.41,0.963,0.127,1.5c-0.078,0.152,0.063,0.318,0.194,0.433c0.623,0.536,0.625,1.19,0.363,1.896
			C94.143,44.047,94.102,44.088,94.044,44.114z M51.569,84.051c-0.044,0.252-0.213,0.313-0.414,0.311
			c-0.261-0.006-0.449-0.119-0.444-0.408c0.004-0.213,0.131-0.371,0.347-0.363C51.348,83.598,51.457,83.842,51.569,84.051z
			 M46.563,91.338l0.001,0.004c-0.784,0.479-1.594,0.807-2.52,0.416c-0.193-0.082-0.398-0.252-0.591-0.148
			c-0.593,0.311-0.812-0.066-0.968-0.508c-0.15-0.422-0.534-0.689-0.721-1.117c0.456-0.143,0.824,0.271,1.079,0.234
			c0.576-0.084,1.251,0.018,1.731-0.438c0.333-0.317,0.477-0.399,0.593,0.168c0.133,0.653,0.793,0.912,1.404,0.631
			c0.041,0.002,0.083,0.002,0.124,0.002c0.226,0.17,0.186,0.356-0.016,0.483C46.549,91.148,46.482,91.195,46.563,91.338z
			 M45.541,97.131c0.047,0.579-0.239,0.842-0.992,0.899c-0.127-0.084-0.253-0.168-0.38-0.255c-0.114-0.161-0.286-0.237-0.457-0.319
			c-0.296-0.146-0.355-0.401-0.281-0.688c0.075-0.293,0.35-0.256,0.567-0.283c0.142-0.02,0.292,0.031,0.436,0.016
			C45.291,96.41,45.493,96.521,45.541,97.131z"/>
	</g>
</g>
<g>
</g>
<g>
</g>
<g>
</g>
<g>
</g>
<g>
</g>
<g>
</g>
<g>
</g>
<g>
</g>
<g>
</g>
<g>
</g>
<g>
</g>
<g>
</g>
<g>
</g>
<g>
</g>
<g>
</g>
</svg>
